<?xml version="1.0" encoding="UTF-8"?>
<svg version="1.1" xmlns="http://www.w3.org/2000/svg" width="1024" height="1024">
<path d="M0 0 C3.38961959 1.39402823 6.80583972 2.6022596 10.29296875 3.734375 C36.39845711 16.78711918 59.12876697 35.14625809 80.25927734 55.04150391 C83.04900196 57.69928721 83.04900196 57.69928721 86.29296875 59.734375 C86.29296875 60.394375 86.29296875 61.054375 86.29296875 61.734375 C86.84331787 61.95802734 87.39366699 62.18167969 87.96069336 62.41210938 C91.02777002 64.15096494 93.13911217 66.37532292 95.609375 68.890625 C96.10710922 69.39356079 96.60484344 69.89649658 97.11766052 70.41467285 C98.70177709 72.01654345 100.27902619 73.62495448 101.85546875 75.234375 C103.43633596 76.84290919 105.01865838 78.44994112 106.60398865 80.05407715 C108.0408084 81.50870842 109.47279883 82.96810516 110.90454102 84.42773438 C113.26476427 86.84485519 113.26476427 86.84485519 116.29296875 88.734375 C116.29296875 89.394375 116.29296875 90.054375 116.29296875 90.734375 C116.84210938 90.96253906 117.39125 91.19070313 117.95703125 91.42578125 C120.97764573 93.1179315 123.16346068 95.28058442 125.66796875 97.671875 C130.14892458 101.87711208 134.76297471 105.82580953 139.60546875 109.609375 C140.16733887 110.04886475 140.72920898 110.48835449 141.30810547 110.94116211 C144.08505442 113.09062347 146.89572223 115.16713099 149.7734375 117.1796875 C152.20295727 118.89618507 154.46476518 120.70862244 156.69921875 122.671875 C160.52640097 126.00577595 164.5978683 128.88386374 168.79296875 131.734375 C169.60612549 132.28834961 170.41928223 132.84232422 171.25708008 133.41308594 C181.3718563 140.2294618 191.80182458 146.51878527 202.29296875 152.734375 C203.01548828 153.16733887 203.73800781 153.60030273 204.48242188 154.04638672 C245.21331807 178.37456979 292.80522113 193.3722809 340.35546875 192.859375 C342.01236426 192.84930466 343.66926583 192.84018612 345.32617188 192.83203125 C349.31525911 192.81038561 353.30404301 192.77609009 357.29296875 192.734375 C355.35747783 199.6900745 352.98072746 206.30170356 350.10546875 212.921875 C349.71037109 213.83461182 349.31527344 214.74734863 348.90820312 215.68774414 C334.18801348 249.2232802 310.7672511 280.73573626 281.29296875 302.734375 C280.67341309 303.1979541 280.05385742 303.6615332 279.41552734 304.13916016 C264.49166848 315.22088134 249.22760747 323.05852516 232.02612305 330.01342773 C230.76097221 330.53969769 229.51855162 331.12158356 228.29296875 331.734375 C226.73652522 332.0568021 225.1723713 332.34236918 223.60546875 332.609375 C218.94070011 333.4246368 214.305644 334.3394496 209.66796875 335.296875 C205.44088573 336.15435667 201.27200162 336.9240021 196.98046875 337.359375 C193.47473822 337.49581239 193.47473822 337.49581239 191.29296875 338.734375 C186.76548791 338.75062859 182.24742474 338.39903341 177.73046875 338.109375 C177.06379181 338.06724884 176.39711487 338.02512268 175.7102356 337.98171997 C163.12874915 337.15563899 150.97176042 335.11055043 138.67944336 332.27514648 C137.89190674 332.09669189 137.10437012 331.9182373 136.29296875 331.734375 C135.40810791 331.52562744 134.52324707 331.31687988 133.61157227 331.10180664 C131.27483407 330.50106915 131.27483407 330.50106915 129.29296875 331.734375 C128.58140625 331.05375 128.58140625 331.05375 127.85546875 330.359375 C124.23612532 328.0641816 120.47002485 327.49302835 116.29296875 326.734375 C116.29296875 326.074375 116.29296875 325.414375 116.29296875 324.734375 C114.71183955 324.22744808 113.12795492 323.72911057 111.54296875 323.234375 C110.66125 322.9559375 109.77953125 322.6775 108.87109375 322.390625 C106.09029346 321.56992215 106.09029346 321.56992215 102.29296875 321.734375 C102.29296875 321.074375 102.29296875 320.414375 102.29296875 319.734375 C101.60895996 319.41275391 100.92495117 319.09113281 100.22021484 318.75976562 C84.16490932 311.18971742 68.63733833 303.42480998 53.81958008 293.61450195 C51.31246751 291.96406897 49.15789708 290.68935111 46.29296875 289.734375 C44.95665591 288.40402784 43.62398928 287.07001713 42.29296875 285.734375 C40.01669116 283.94485752 37.65906912 282.27752526 35.29296875 280.609375 C34.67679687 280.16722656 34.060625 279.72507812 33.42578125 279.26953125 C30.45360563 277.15839363 27.56091077 275.35723056 24.29296875 273.734375 C22.62630208 272.06770833 20.95963542 270.40104167 19.29296875 268.734375 C18.30296875 268.404375 17.31296875 268.074375 16.29296875 267.734375 C15.1841017 266.34829119 14.07562498 264.96189388 12.96875 263.57421875 C10.97333146 261.38344454 8.80276753 259.63869817 6.48046875 257.796875 C1.78570383 254.0431105 -2.6517353 250.09656776 -7.02734375 245.9765625 C-8.064105 245.0020237 -8.064105 245.0020237 -9.12181091 244.00779724 C-16.41840915 237.11447569 -23.54182073 230.05110894 -30.62866211 222.94311523 C-32.79620767 220.77013165 -34.96915625 218.60265137 -37.14257812 216.43554688 C-38.55110252 215.02636271 -39.95931725 213.61686894 -41.3671875 212.20703125 C-42.00270035 211.57354263 -42.6382132 210.94005402 -43.29298401 210.28736877 C-47.04787726 206.51302478 -50.62035142 202.62762968 -54.09202576 198.59092712 C-56.87583398 195.3907615 -59.7982179 192.32053044 -62.70703125 189.234375 C-66.93823249 184.7229102 -71.14800942 180.20736091 -75.17578125 175.51171875 C-76.32579754 174.17687841 -77.4959603 172.8593525 -78.67578125 171.55078125 C-79.32546875 170.82761719 -79.97515625 170.10445312 -80.64453125 169.359375 C-81.23105469 168.71226562 -81.81757813 168.06515625 -82.421875 167.3984375 C-83.70703125 165.734375 -83.70703125 165.734375 -83.70703125 163.734375 C-84.36703125 163.734375 -85.02703125 163.734375 -85.70703125 163.734375 C-87.07915426 162.20242228 -88.37857585 160.60516419 -89.64453125 158.984375 C-93.02776337 154.74854667 -96.50788549 150.69566494 -100.20703125 146.734375 C-103.60099826 143.09019114 -106.85354248 139.38123684 -109.95703125 135.484375 C-114.36360366 130.00572057 -119.14907773 124.94635112 -123.98510742 119.85083008 C-128.0425194 115.55847 -131.96273951 111.18746001 -135.76953125 106.671875 C-141.09367659 100.36360759 -146.67461787 94.33004534 -152.3359375 88.32421875 C-155.33457948 85.14286685 -158.27461266 81.91432904 -161.20703125 78.671875 C-166.99786069 72.33117451 -173.06775798 66.28297827 -179.17651367 60.25 C-180.57248964 58.86760747 -181.95865918 57.47533001 -183.34375 56.08203125 C-190.97989191 48.49637622 -199.25281492 41.79093248 -207.76806641 35.23632812 C-209.77392326 33.68255938 -211.76246658 32.10837129 -213.75 30.53125 C-223.03233241 23.22372024 -232.60849651 16.83472573 -242.79785156 10.86230469 C-245.23171171 9.42439754 -247.62200229 7.91936072 -250.01953125 6.421875 C-255.66947632 3.02795003 -261.68725657 0.39515315 -267.70703125 -2.265625 C-267.21203125 -3.750625 -267.21203125 -3.750625 -266.70703125 -5.265625 C-264.96166992 -6.13769531 -264.96166992 -6.13769531 -262.625 -6.84375 C-261.73184082 -7.11405029 -260.83868164 -7.38435059 -259.91845703 -7.6628418 C-258.92056152 -7.94426025 -257.92266602 -8.22567871 -256.89453125 -8.515625 C-255.83991699 -8.81573486 -254.78530273 -9.11584473 -253.69873047 -9.42504883 C-232.36039301 -15.26989778 -210.47866476 -19.07474293 -188.51953125 -21.640625 C-187.84053772 -21.72025482 -187.16154419 -21.79988464 -186.4619751 -21.88192749 C-124.37624068 -29.02395579 -58.04184358 -23.9511274 0 0 Z " fill="#5921B6" transform="translate(331.70703125,284.265625)"/>
<path d="M0 0 C0.56734863 0.39155273 1.13469727 0.78310547 1.71923828 1.18652344 C10.76089014 7.43586343 19.41677204 14.13980911 28 21 C28.89589844 21.7115625 29.79179688 22.423125 30.71484375 23.15625 C32.32573353 24.43885419 33.93271862 25.72638275 35.53515625 27.01953125 C37.36483196 28.48965104 39.20818339 29.94278423 41.05859375 31.38671875 C42.07050781 32.18722656 43.08242188 32.98773438 44.125 33.8125 C45.05570313 34.54082031 45.98640625 35.26914062 46.9453125 36.01953125 C47.62335937 36.67308594 48.30140625 37.32664062 49 38 C49 38.99 49 39.98 49 41 C48.34104736 41.12528076 47.68209473 41.25056152 47.00317383 41.37963867 C20.65681776 46.45199658 -2.71781283 54.09336837 -19 77 C-19.85658203 78.19302734 -19.85658203 78.19302734 -20.73046875 79.41015625 C-37.35548727 104.02431411 -42.681183 133.18125427 -49.18115234 161.62597656 C-49.41097809 162.62805145 -49.64080383 163.63012634 -49.87759399 164.66256714 C-50.30873307 166.545751 -50.73699809 168.42959633 -51.16171265 170.3142395 C-52.36189471 175.5573396 -53.76547739 180.67207885 -55.42999268 185.78799438 C-56.16635745 188.26486577 -56.16635745 188.26486577 -56 192 C-56.66 192 -57.32 192 -58 192 C-58.11102051 192.54672363 -58.22204102 193.09344727 -58.33642578 193.65673828 C-67.35587014 236.31479653 -92.34921406 278.37249499 -122 310 C-123.15196985 311.32803511 -124.29828008 312.66101166 -125.4375 314 C-133.21663725 322.90866069 -141.73870671 330.66814281 -151 338 C-152.1681671 338.9565038 -153.33475456 339.91493909 -154.5 340.875 C-162.98685907 347.83180857 -171.72192874 354.14210947 -181 360 C-181.57621094 360.36657715 -182.15242188 360.7331543 -182.74609375 361.11083984 C-232.53018852 392.56456639 -288.62719179 409.46678731 -347 415 C-347.74185547 415.07202637 -348.48371094 415.14405273 -349.24804688 415.21826172 C-396.06444732 419.55694976 -459.86394274 415.56802863 -503 394 C-503 393.34 -503 392.68 -503 392 C-502.15912842 391.57255493 -502.15912842 391.57255493 -501.30126953 391.13647461 C-485.22592682 382.93327883 -469.56828443 374.12387358 -454 365 C-452.46252912 364.1049712 -450.92480086 363.21038426 -449.38671875 362.31640625 C-433.02518058 352.78179104 -416.7073476 343.10907874 -401.07324219 332.41357422 C-398.64192562 330.75585837 -396.19986424 329.11451478 -393.7578125 327.47265625 C-383.26454221 320.39658135 -372.96592888 313.14872154 -362.91650391 305.45605469 C-360.92902241 303.94607512 -358.92619945 302.45881668 -356.91796875 300.9765625 C-342.90838158 290.64777592 -342.90838158 290.64777592 -330 279 C-328.79785321 278.09882967 -327.58559903 277.21108655 -326.3671875 276.33203125 C-321.9876053 273.07351937 -318.06009255 269.46285117 -314.125 265.6875 C-312.81615927 264.44029806 -311.50624753 263.19421918 -310.1953125 261.94921875 C-309.51799072 261.30573486 -308.84066895 260.66225098 -308.14282227 259.99926758 C-305.91031472 257.91632303 -303.63345367 255.8914318 -301.34765625 253.8671875 C-295.38922585 248.52662192 -289.7405546 242.89116531 -284.09448242 237.22485352 C-282.3082533 235.4332405 -280.51670653 233.64706945 -278.72460938 231.86132812 C-272.93520002 226.07528039 -267.29536783 220.24764247 -262 214 C-260.54554483 212.39231627 -259.08779105 210.78760285 -257.625 209.1875 C-253.74771132 204.89175183 -250.07337804 200.46550528 -246.4375 195.96484375 C-244.23568184 193.2866707 -241.98425061 190.66691527 -239.70507812 188.05517578 C-233.31053887 180.71215435 -227.43072105 173.0777431 -221.65966797 165.23925781 C-219.85255447 162.80106349 -218.02420288 160.37988022 -216.19140625 157.9609375 C-204.03350257 144.43932704 -204.03350257 144.43932704 -197 129 C-195.67550297 127.65788854 -194.3406001 126.32602674 -193 125 C-191.88127442 123.42168078 -190.81174757 121.8077092 -189.78515625 120.16796875 C-189.18848145 119.21736572 -188.59180664 118.2667627 -187.97705078 117.28735352 C-187.34524902 116.26440186 -186.71344727 115.2414502 -186.0625 114.1875 C-185.39718262 113.11363037 -184.73186523 112.03976074 -184.04638672 110.93334961 C-170.15521228 88.35977762 -158.07440606 64.88869881 -146.10498047 41.26171875 C-144.38984697 37.8790037 -142.66427082 34.50178482 -140.9375 31.125 C-140.45023438 30.15256348 -139.96296875 29.18012695 -139.4609375 28.17822266 C-127.60467781 5.0593239 -108.8255205 -13.56961639 -84.12890625 -22.0546875 C-54.47986738 -31.01232471 -23.92930664 -16.71891532 0 0 Z " fill="#5D26BC" transform="translate(893,398)"/>
<path d="M0 0 C1.37764023 -0.00067978 1.37764023 -0.00067978 2.78311157 -0.00137329 C17.52495796 0.01990614 31.67032945 1.04005972 46.171875 3.87548828 C48.4025076 4.30767335 50.6293995 4.68407801 52.875 5.02734375 C82.29767183 9.96338409 123.86823896 25.01423327 145.75 46.375 C145.75 46.705 145.75 47.035 145.75 47.375 C144.72845825 47.49560791 144.72845825 47.49560791 143.6862793 47.61865234 C140.60229546 47.98747819 137.51995171 48.36859015 134.4375 48.75 C132.8297168 48.93949219 132.8297168 48.93949219 131.18945312 49.1328125 C129.64741211 49.32617188 129.64741211 49.32617188 128.07421875 49.5234375 C127.12635498 49.63864746 126.17849121 49.75385742 125.2019043 49.87255859 C122.5083913 50.26424512 122.5083913 50.26424512 119.75 52.375 C118.70585938 52.36597656 117.66171875 52.35695312 116.5859375 52.34765625 C112.08375382 52.37974921 108.59864506 53.36410151 104.375 54.8125 C103.59769531 55.07691895 102.82039063 55.34133789 102.01953125 55.61376953 C89.29738096 60.13280474 77.90860548 66.45757752 67.75 75.375 C66.85796875 76.07109375 65.9659375 76.7671875 65.046875 77.484375 C62.67089681 79.44011215 62.05890362 80.67538628 60.75 83.375 C60.04875 84.055625 59.3475 84.73625 58.625 85.4375 C30.39666554 112.83802406 24.28723578 160.6662886 23.65600586 197.80834961 C23.61417341 201.50467089 23.60906511 205.2004573 23.61962891 208.89697266 C23.62503234 211.138414 23.61961437 213.37965804 23.61328125 215.62109375 C23.61005402 223.34164151 23.85432453 230.95712782 24.52734375 238.65478516 C24.78800544 241.83931649 24.85098591 244.99316985 24.8125 248.1875 C24.80347656 249.18394531 24.79445313 250.18039062 24.78515625 251.20703125 C24.76775391 252.28017578 24.76775391 252.28017578 24.75 253.375 C25.41 253.705 26.07 254.035 26.75 254.375 C27.0234375 256.76171875 27.0234375 256.76171875 27.125 260.0625 C27.54737015 267.79267068 28.88878907 275.23087798 30.37841797 282.82104492 C30.5538916 283.72701416 30.72936523 284.6329834 30.91015625 285.56640625 C31.07136963 286.37279541 31.23258301 287.17918457 31.39868164 288.01000977 C31.76826428 290.49795074 31.80993808 292.86345489 31.75 295.375 C19.99044391 299.579725 7.60431886 299.75397052 -4.75 299.6875 C-5.86533615 299.68376877 -5.86533615 299.68376877 -7.00320435 299.67996216 C-57.54367861 299.41976823 -106.65264015 279.99349253 -147.25 250.375 C-147.8776123 249.91867187 -148.50522461 249.46234375 -149.15185547 248.9921875 C-171.11718591 232.95111631 -192.50245099 214.65751891 -210.05078125 193.79296875 C-211.33555174 192.23392049 -211.33555174 192.23392049 -213.25 190.375 C-213.93528746 183.912479 -212.08841831 178.11115788 -210.3125 171.9375 C-209.99893555 170.84002441 -209.68537109 169.74254883 -209.36230469 168.61181641 C-195.02959976 119.6522491 -168.33307197 73.66830413 -127.25 42.375 C-126.72567383 41.96362793 -126.20134766 41.55225586 -125.66113281 41.12841797 C-111.67368004 30.1695528 -96.05241911 20.35847016 -79.25 14.375 C-79.25 13.715 -79.25 13.055 -79.25 12.375 C-78.07953125 12.25769531 -76.9090625 12.14039063 -75.703125 12.01953125 C-71.60015282 11.50530888 -67.91784768 10.40873915 -64 9.0625 C-57.79759405 7.02662968 -51.58902087 5.46348716 -45.1875 4.1875 C-44.42211914 4.0330542 -43.65673828 3.8786084 -42.86816406 3.71948242 C-40.33402037 3.23237074 -37.79613586 2.79510122 -35.25 2.375 C-34.1779834 2.19549805 -33.1059668 2.01599609 -32.00146484 1.83105469 C-21.32116209 0.21462333 -10.78440263 -0.02077358 0 0 Z " fill="#BF88FD" transform="translate(672.25,163.625)"/>
<path d="M0 0 C0.99 0.495 0.99 0.495 2 1 C-1.8456504 5.14318622 -5.92421932 8.16494402 -10.6875 11.1875 C-11.43515625 11.66453369 -12.1828125 12.14156738 -12.953125 12.63305664 C-40.04044458 29.72373084 -80.03082092 54.63402267 -113 54 C-111.3125 51.9375 -111.3125 51.9375 -109 50 C-106.25 50.25 -106.25 50.25 -104 51 C-104 50.34 -104 49.68 -104 49 C-99.545 48.505 -99.545 48.505 -95 48 C-95 47.34 -95 46.68 -95 46 C-90.82262526 44.40861915 -87.46839215 43.78721942 -83 44 C-83 43.34 -83 42.68 -83 42 C-79.17010894 40.19769832 -76.21878192 39.80377759 -72 40 C-72 39.34 -72 38.68 -72 38 C-68.7 37.34 -65.4 36.68 -62 36 C-61.67 35.01 -61.34 34.02 -61 33 C-59.35 33 -57.7 33 -56 33 C-55.67 32.01 -55.34 31.02 -55 30 C-52.30306894 29.20418428 -49.73976246 28.5591352 -47 28 C-45.66518831 27.67263686 -44.33137494 27.34107133 -43 27 C-43 26.34 -43 25.68 -43 25 C-41.68 25 -40.36 25 -39 25 C-38.505 23.515 -38.505 23.515 -38 22 C-36.35 22 -34.7 22 -33 22 C-33 21.34 -33 20.68 -33 20 C-32.01 20 -31.02 20 -30 20 C-29.505 18.515 -29.505 18.515 -29 17 C-27.68 17 -26.36 17 -25 17 C-25 16.34 -25 15.68 -25 15 C-24.39671875 14.75765625 -23.7934375 14.5153125 -23.171875 14.265625 C-18.59648434 12.34691279 -15.41649578 10.67930315 -12 7 C-11.01 7 -10.02 7 -9 7 C-8.67 6.34 -8.34 5.68 -8 5 C-6.66666667 4.33333333 -5.33333333 3.66666667 -4 3 C-3.67 2.34 -3.34 1.68 -3 1 C-2.01 0.67 -1.02 0.34 0 0 Z " fill="#491E8D" transform="translate(724,746)"/>
<path d="M0 0 C-1.48187617 3.46421481 -3.43741639 5.64651976 -6.1328125 8.2578125 C-7.34130859 9.44310547 -7.34130859 9.44310547 -8.57421875 10.65234375 C-9.41597656 11.46832031 -10.25773438 12.28429687 -11.125 13.125 C-12.79877215 14.74797481 -14.46829059 16.37535201 -16.1328125 18.0078125 C-16.87418457 18.72598145 -17.61555664 19.44415039 -18.37939453 20.18408203 C-20.22194811 21.84304516 -20.22194811 21.84304516 -20 24 C-21.61718311 25.4328718 -23.29623372 26.79624749 -25 28.125 C-29.35573528 31.60287849 -33.33022577 35.21481085 -37.21484375 39.203125 C-39.68005807 41.68452235 -42.21709905 43.87969451 -45 46 C-45.66 46 -46.32 46 -47 46 C-47.226875 46.763125 -47.45375 47.52625 -47.6875 48.3125 C-49.28721401 51.58810488 -50.89919392 52.2170365 -54 54 C-55.13350534 56.01669827 -55.13350534 56.01669827 -56 58 C-59 60 -59 60 -61 60 C-62.84173758 61.48139762 -64.60848346 62.99512298 -66.375 64.5625 C-73.81052146 71.02097316 -81.68582589 76.85260784 -89.59375 82.71484375 C-92.78353604 85.07975433 -95.92519046 87.48596515 -99 90 C-99.66 89.67 -100.32 89.34 -101 89 C-98.34577205 85.44064362 -95.77339893 82.89228437 -92.125 80.375 C-82.06863824 73.25736058 -71.72862842 65.72862842 -63 57 C-61.79785321 56.09882967 -60.58559903 55.21108655 -59.3671875 54.33203125 C-54.9876053 51.07351937 -51.06009255 47.46285117 -47.125 43.6875 C-45.81615927 42.44029806 -44.50624753 41.19421918 -43.1953125 39.94921875 C-42.51758789 39.30509033 -41.83986328 38.66096191 -41.14160156 37.99731445 C-38.91765523 35.92320309 -36.64666744 33.91126393 -34.3671875 31.8984375 C-26.97237724 25.27542601 -20.09120241 18.12011718 -13.13720703 11.04125977 C-11.34576298 9.21982449 -9.54831554 7.40449123 -7.75 5.58984375 C-7.20110107 5.0274852 -6.65220215 4.46512665 -6.08666992 3.88572693 C-2.22660991 0 -2.22660991 0 0 0 Z " fill="#562899" transform="translate(626,620)"/>
<path d="M0 0 C3.77556853 3.77132261 7.54206551 7.55160987 11.30744934 11.33309937 C14.73658671 14.77564702 18.16839113 18.21553068 21.6003418 21.65527344 C23.40397907 23.46394381 25.20671838 25.27351011 27.00854492 27.08398438 C29.62439449 29.7120363 32.24352465 32.33678095 34.86328125 34.9609375 C35.65938309 35.76220062 36.45548492 36.56346375 37.27571106 37.38900757 C45.51384187 46.50927932 45.51384187 46.50927932 56 52 C57.0066006 53.66268849 58.00508489 55.33029293 59 57 C61.20165379 59.258314 63.59167758 61.27860582 66 63.3125 C66.67353516 63.88790527 67.34707031 64.46331055 68.04101562 65.05615234 C73.49474872 69.6705502 79.16006906 73.88781302 85 78 C87.73661162 79.98988481 90.46203273 81.99488958 93.1875 84 C94.49339158 84.95846688 95.79937281 85.91681163 97.10546875 86.875 C98.06066406 87.57625 99.01585937 88.2775 100 89 C98.19116211 89.62402344 98.19116211 89.62402344 96 90 C93.67982542 88.49470155 91.66904347 87.01227408 89.5625 85.25 C88.44078344 84.33610435 87.31711498 83.42459868 86.19140625 82.515625 C85.65273926 82.08056641 85.11407227 81.64550781 84.55908203 81.19726562 C81.87944464 79.13949209 79.01518894 77.50759447 76 76 C75.195625 75.175 74.39125 74.35 73.5625 73.5 C71.18879763 70.82063363 71.18879763 70.82063363 68 70 C66.89113295 68.61391619 65.78265623 67.22751888 64.67578125 65.83984375 C62.68036271 63.64906954 60.50979878 61.90432317 58.1875 60.0625 C53.49868806 56.31316752 49.06572219 52.37253162 44.6953125 48.2578125 C44.00496414 47.60894577 43.31461578 46.96007904 42.60334778 46.29154968 C35.22534767 39.32122204 28.02470809 32.17622522 20.85864258 24.98901367 C18.64716872 22.77206895 16.4302493 20.56066667 14.21289062 18.34960938 C12.79134509 16.92740469 11.37010888 15.50489074 9.94921875 14.08203125 C9.29306076 13.42789749 8.63690277 12.77376373 7.96086121 12.09980774 C0 4.09772891 0 4.09772891 0 0 Z " fill="#4C2488" transform="translate(280,482)"/>
<path d="M0 0 C4.74539676 8.02473599 3.14645694 19.96848873 3 29 C3.66 29.33 4.32 29.66 5 30 C5.2734375 32.38671875 5.2734375 32.38671875 5.375 35.6875 C5.79737015 43.41767068 7.13878907 50.85587798 8.62841797 58.44604492 C8.89162842 59.80499878 8.89162842 59.80499878 9.16015625 61.19140625 C9.32136963 61.99779541 9.48258301 62.80418457 9.64868164 63.63500977 C10.01826428 66.12295074 10.05993808 68.48845489 10 71 C-1.7602332 75.2049671 -14.14524996 75.37744366 -26.5 75.3125 C-27.24222809 75.31034485 -27.98445618 75.3081897 -28.74917603 75.30596924 C-79.93133128 75.06866872 -79.93133128 75.06866872 -91 64 C-85.35095064 64.90959269 -79.80257413 66.01515031 -74.26635742 67.47045898 C-57.86100723 71.7788746 -39.3646542 74.61617316 -22.41015625 72.25390625 C-18.21083985 71.81151473 -14.00190702 71.98208521 -9.78515625 72.0625 C-6.91356911 72.13500343 -6.91356911 72.13500343 -4 71 C-1.13569136 70.69760965 1.72919934 70.49234231 4.6015625 70.28125 C6.94950291 70.25714407 6.94950291 70.25714407 8 69 C7.68197184 66.72459566 7.28369211 64.46038697 6.85546875 62.203125 C6.58833495 60.76471701 6.32158613 59.32623748 6.05517578 57.88769531 C5.91307678 57.13025024 5.77097778 56.37280518 5.62457275 55.59240723 C2.17571987 37.10894459 -0.57061648 18.86204484 0 0 Z " fill="#A468F0" transform="translate(694,388)"/>
<path d="M0 0 C-0.76461548 0.43868408 -0.76461548 0.43868408 -1.54467773 0.88623047 C-3.8454816 2.21035478 -6.14150678 3.54255309 -8.4375 4.875 C-9.23994141 5.33519531 -10.04238281 5.79539062 -10.86914062 6.26953125 C-11.63291016 6.71425781 -12.39667969 7.15898438 -13.18359375 7.6171875 C-14.24404907 8.22989502 -14.24404907 8.22989502 -15.32592773 8.85498047 C-17.156435 9.90804949 -17.156435 9.90804949 -18 12 C-19.32 12 -20.64 12 -22 12 C-22.33 12.99 -22.66 13.98 -23 15 C-25.21484375 16.16796875 -25.21484375 16.16796875 -27.9375 17.1875 C-28.83339844 17.53167969 -29.72929687 17.87585938 -30.65234375 18.23046875 C-33 19 -33 19 -35 19 C-35.33 19.99 -35.66 20.98 -36 22 C-37.65 22 -39.3 22 -41 22 C-41.99 24.475 -41.99 24.475 -43 27 C-37.52360012 28.74305278 -32.04899579 30.25226741 -26.4375 31.5 C-21.14351341 32.68550174 -16.10907586 34.18151537 -11 36 C-11 36.33 -11 36.66 -11 37 C-19.20470497 37.54639281 -26.01673864 35.55670538 -33.8125 33.125 C-35.02615234 32.76019531 -36.23980469 32.39539063 -37.49023438 32.01953125 C-47.15102852 29.0790571 -47.15102852 29.0790571 -51 27 C-51 26.34 -51 25.68 -51 25 C-50.42894531 24.7097998 -49.85789062 24.41959961 -49.26953125 24.12060547 C-36.48244603 17.59746402 -23.94724441 10.81520656 -11.72070312 3.28271484 C-10.76744141 2.70859863 -9.81417969 2.13448242 -8.83203125 1.54296875 C-7.99389893 1.02758545 -7.1557666 0.51220215 -6.29223633 -0.01879883 C-3.67063158 -1.1409875 -2.61440302 -1.01456129 0 0 Z " fill="#441D87" transform="translate(441,765)"/>
<path d="M0 0 C1.32 0.33 2.64 0.66 4 1 C3.29875 2.093125 2.5975 3.18625 1.875 4.3125 C-4.84470024 15.09790123 -10.33084332 26.56183706 -15.95898438 37.93847656 C-19.48034026 45.05132017 -23.04714823 52.11438723 -27 59 C-27.66 58.01 -28.32 57.02 -29 56 C-28.37939453 53.83398438 -28.37939453 53.83398438 -27 51 C-26.71316345 50.39905518 -26.4263269 49.79811035 -26.13079834 49.17895508 C-25.08139103 46.99566235 -24.0081912 44.82531347 -22.9296875 42.65625 C-22.52976593 41.85070679 -22.12984436 41.04516357 -21.71780396 40.21520996 C-20.86996304 38.51009967 -20.02096807 36.80556278 -19.17089844 35.1015625 C-17.89457512 32.53929776 -16.62687505 29.97288816 -15.359375 27.40625 C-10.66753231 17.96344397 -5.7496116 8.8455563 0 0 Z " fill="#6F33CA" transform="translate(761,414)"/>
<path d="M0 0 C25.08 0 50.16 0 76 0 C76 0.33 76 0.66 76 1 C74.865625 1.144375 73.73125 1.28875 72.5625 1.4375 C69.19222799 1.61171478 69.19222799 1.61171478 68 3 C46.58390895 5.55855955 20.91783422 6.67341479 0 1 C0 0.67 0 0.34 0 0 Z " fill="#492185" transform="translate(478,810)"/>
<path d="M0 0 C3.34373475 0.55728913 6.03312999 1.35173889 9 3 C9 3.66 9 4.32 9 5 C9.99 5 10.98 5 12 5 C12.5775 5.61875 13.155 6.2375 13.75 6.875 C16.63285116 9.59769276 19.2001745 9.92338278 23 11 C25.80718859 12.46013137 28.53793525 14.00476831 31 16 C31 16.66 31 17.32 31 18 C31.804375 18.268125 32.60875 18.53625 33.4375 18.8125 C37.625 20.20833333 41.8125 21.60416667 46 23 C46 23.66 46 24.32 46 25 C46.99 25.33 47.98 25.66 49 26 C49 26.33 49 26.66 49 27 C42.88382461 26.51070597 38.30098885 24.53966308 32.875 21.75 C32.02059326 21.3161499 31.16618652 20.8822998 30.28588867 20.43530273 C23.47035505 16.90528836 16.859466 13.0662432 10.3125 9.0625 C9.39774902 8.50723633 8.48299805 7.95197266 7.54052734 7.37988281 C6.27716553 6.59049316 6.27716553 6.59049316 4.98828125 5.78515625 C4.24102783 5.31988525 3.49377441 4.85461426 2.72387695 4.37524414 C1 3 1 3 0 0 Z " fill="#4B2089" transform="translate(383,574)"/>
<path d="M0 0 C3.59721356 1.4954708 5.63097221 3.52706308 8.1875 6.4375 C8.98027344 7.33855469 9.77304688 8.23960937 10.58984375 9.16796875 C12.85458328 11.82912947 15.0598016 14.52737767 17.25 17.25 C21.90360683 23.00577687 26.92299879 28.37220767 31.98046875 33.76953125 C37.72856852 39.90402811 43.05910997 46.19496464 48 53 C43.57789732 52.59610772 41.42764657 49.58514578 38.6875 46.4375 C38.2018457 45.89319336 37.71619141 45.34888672 37.21582031 44.78808594 C35.80191106 43.19943442 34.39967736 41.60118935 33 40 C32.33097656 39.24332031 31.66195313 38.48664063 30.97265625 37.70703125 C29.85497685 36.43728662 28.74265094 35.16280182 27.63671875 33.8828125 C26.44461829 32.5114702 25.23666667 31.15385931 24.01953125 29.8046875 C23.37371094 29.08539063 22.72789062 28.36609375 22.0625 27.625 C21.47597656 26.97789062 20.88945312 26.33078125 20.28515625 25.6640625 C19 24 19 24 19 22 C18.34 22 17.68 22 17 22 C15.56450274 20.40665761 14.20172673 18.74748918 12.875 17.0625 C9.21574082 12.47211653 5.42532841 8.08032478 1.43359375 3.77734375 C0 2 0 2 0 0 Z " fill="#4C218A" transform="translate(229,426)"/>
<path d="M0 0 C0.99 0.33 1.98 0.66 3 1 C-9.42828808 10.25016036 -22.35610705 18.66294848 -35.47851562 26.88964844 C-39.6953015 29.5336196 -43.87499439 32.21479621 -48 35 C-48.66 34.67 -49.32 34.34 -50 34 C-46.73761556 30.39334384 -43.00520713 27.98478265 -38.875 25.5 C-32.74927888 21.74483932 -26.71952055 17.87388854 -20.75 13.875 C-19.99630127 13.37202393 -19.24260254 12.86904785 -18.46606445 12.35083008 C-15.05726651 10.0707288 -11.66299518 7.7740962 -8.30078125 5.42578125 C-7.23214844 4.68714844 -6.16351563 3.94851563 -5.0625 3.1875 C-4.14597656 2.54167969 -3.22945313 1.89585937 -2.28515625 1.23046875 C-1.53105469 0.82441406 -0.77695312 0.41835938 0 0 Z " fill="#482186" transform="translate(515,715)"/>
<path d="M0 0 C0.66 0 1.32 0 2 0 C3.515625 1.5390625 3.515625 1.5390625 5.25 3.625 C7.54660073 6.34047759 9.87150775 8.91262264 12.4375 11.375 C15 14 15 14 15 16 C15.66 16 16.32 16 17 16 C18.33984375 17.328125 18.33984375 17.328125 19.9375 19.25 C23.04570796 22.90976887 26.2432372 26.47258131 29.5 30 C30.44441327 31.02957853 31.38842964 32.05952128 32.33203125 33.08984375 C33.97101075 34.87760324 35.61346028 36.66219806 37.26171875 38.44140625 C37.89722656 39.14136719 38.53273437 39.84132813 39.1875 40.5625 C39.73792969 41.16191406 40.28835937 41.76132812 40.85546875 42.37890625 C42 44 42 44 42 47 C35.10183143 41.32357791 29.26508304 34.93995482 23.43701172 28.18969727 C18.53997334 22.54421229 13.43283662 17.1230238 8.25390625 11.73632812 C0 3.03875349 0 3.03875349 0 0 Z " fill="#532497" transform="translate(161,350)"/>
<path d="M0 0 C20.78230677 -0.26797261 41.28131036 0.30647233 62 2 C62 2.33 62 2.66 62 3 C56.28101684 4.2581763 50.72732334 4.03314172 44.9140625 3.87890625 C43.32868179 3.84348976 43.32868179 3.84348976 41.71127319 3.80735779 C38.34903476 3.73103441 34.98704505 3.64687565 31.625 3.5625 C29.33985576 3.50924795 27.05469952 3.45650778 24.76953125 3.40429688 C19.17953498 3.27546184 13.58972216 3.14020018 8 3 C8 2.67 8 2.34 8 2 C5.36 1.67 2.72 1.34 0 1 C0 0.67 0 0.34 0 0 Z " fill="#6734B7" transform="translate(176,260)"/>
<path d="M0 0 C7.71935509 1.02924735 15.37429337 2.42269586 23 4 C23.70125 4.144375 24.4025 4.28875 25.125 4.4375 C27 5 27 5 30 7 C31.65549531 7.38499891 33.3222433 7.72793135 35 8 C35 8.33 35 8.66 35 9 C27.46750861 9.40756967 20.93926141 8.50812582 13.65234375 6.55859375 C11.03938317 5.72116664 11.03938317 5.72116664 9 7 C8.1028125 6.2884375 8.1028125 6.2884375 7.1875 5.5625 C4.99617076 3.83534256 4.99617076 3.83534256 2 3 C2 2.34 2 1.68 2 1 C1.34 0.67 0.68 0.34 0 0 Z " fill="#441B88" transform="translate(452,609)"/>
<path d="M0 0 C1.17755859 0.13535156 1.17755859 0.13535156 2.37890625 0.2734375 C4.4375 0.625 4.4375 0.625 6.4375 1.625 C8.43710012 1.664992 10.43797242 1.66846799 12.4375 1.625 C12.4375 2.285 12.4375 2.945 12.4375 3.625 C13.07816406 3.68558594 13.71882813 3.74617187 14.37890625 3.80859375 C19.42173313 4.29709412 24.4287102 4.86279286 29.4375 5.625 C29.4375 5.955 29.4375 6.285 29.4375 6.625 C20.88411685 6.93582281 12.6407781 6.76913571 4.1875 5.3125 C3.47343994 5.19479248 2.75937988 5.07708496 2.02368164 4.95581055 C-1.87480501 4.22633196 -4.62251687 3.33008757 -7.5625 0.625 C-4.51490395 -0.39086535 -3.11156747 -0.37933442 0 0 Z " fill="#4D2686" transform="translate(447.5625,803.375)"/>
<path d="M0 0 C0.99 0.33 1.98 0.66 3 1 C-6.04816837 12.58503801 -15.12366648 24.10104884 -25 35 C-25.495 33.515 -25.495 33.515 -26 32 C-25.47792969 31.44054687 -24.95585938 30.88109375 -24.41796875 30.3046875 C-15.62313688 20.72432774 -7.73196135 10.44859642 0 0 Z " fill="#4F2193" transform="translate(669,566)"/>
<path d="M0 0 C2.9688296 1.37599086 5.41623204 2.9791676 7.9765625 5.01171875 C8.72566895 5.60194824 9.47477539 6.19217773 10.24658203 6.80029297 C11.42389893 7.73446045 11.42389893 7.73446045 12.625 8.6875 C18.95539362 13.66656136 25.30105234 18.52281388 32 23 C30.40234375 23.796875 30.40234375 23.796875 28 24 C25.67982542 22.49470155 23.66904347 21.01227408 21.5625 19.25 C20.44078344 18.33610435 19.31711498 17.42459868 18.19140625 16.515625 C17.65273926 16.08056641 17.11407227 15.64550781 16.55908203 15.19726562 C13.87944464 13.13949209 11.01518894 11.50759447 8 10 C4.66896862 6.9252018 2.16396503 3.98625137 0 0 Z " fill="#411B7D" transform="translate(348,548)"/>
<path d="M0 0 C0 2 0 2 -1.3203125 3.3671875 C-4.10577762 5.69443758 -6.79829729 7.87283959 -9.875 9.8125 C-14.44115267 13.00880687 -18.14624519 16.992095 -22 21 C-22.66 20.01 -23.32 19.02 -24 18 C-6.9778672 0 -6.9778672 0 0 0 Z " fill="#6F33C9" transform="translate(795,383)"/>
<path d="M0 0 C0.33 0.66 0.66 1.32 1 2 C-9.5974026 15.28880643 -9.5974026 15.28880643 -15 20 C-15.33 20 -15.66 20 -16 20 C-16.50758556 16.37438889 -16.1510446 15.20233742 -13.91796875 12.2109375 C-13.01691406 11.27507813 -12.11585938 10.33921875 -11.1875 9.375 C-10.29417969 8.43398438 -9.40085937 7.49296875 -8.48046875 6.5234375 C-7.66191406 5.69070313 -6.84335937 4.85796875 -6 4 C-5.43925781 3.39414062 -4.87851562 2.78828125 -4.30078125 2.1640625 C-3 1 -3 1 -1 1 C-0.67 0.67 -0.34 0.34 0 0 Z " fill="#5E23C1" transform="translate(646,598)"/>
<path d="M0 0 C13.86 0.33 27.72 0.66 42 1 C42 1.33 42 1.66 42 2 C35.13472037 3.09967885 28.37870764 3.2210175 21.44702148 3.24023438 C19.30739649 3.25002335 17.16870068 3.28114984 15.02929688 3.3125 C13.66146398 3.31902392 12.29362429 3.32427679 10.92578125 3.328125 C9.69255127 3.3374707 8.45932129 3.34681641 7.1887207 3.35644531 C4 3 4 3 0 0 Z " fill="#310F69" transform="translate(489,618)"/>
<path d="M0 0 C-3.16847073 3.41318014 -6.75065372 5.13275812 -10.875 7.1875 C-11.58269531 7.55552734 -12.29039062 7.92355469 -13.01953125 8.30273438 C-16.80729743 10.20367104 -19.65006297 11.52028659 -24 11 C-21.23364444 7.74546405 -17.70140023 5.99502077 -14 4 C-13.278125 3.5875 -12.55625 3.175 -11.8125 2.75 C-10 2 -10 2 -6 2 C-6 1.34 -6 0.68 -6 0 C-2.25 -1.125 -2.25 -1.125 0 0 Z " fill="#471D8B" transform="translate(593,599)"/>
<path d="M0 0 C0.66 0 1.32 0 2 0 C1.72793938 4.39297886 0.01278402 6.36044826 -3.20703125 9.25195312 C-3.75746094 9.72568359 -4.30789063 10.19941406 -4.875 10.6875 C-5.41769531 11.17283203 -5.96039062 11.65816406 -6.51953125 12.15820312 C-8.92858025 14.29336269 -11.31829962 16.21219975 -14 18 C-14.99 17.67 -15.98 17.34 -17 17 C-16.525625 16.566875 -16.05125 16.13375 -15.5625 15.6875 C-13.76313043 13.97690387 -13.76313043 13.97690387 -13 11 C-10.55805756 9.39829582 -8.02111084 8.06957225 -5.4453125 6.6953125 C-2.68024753 4.77831857 -1.63670035 2.89117726 0 0 Z " fill="#471D8F" transform="translate(757,717)"/>
<path d="M0 0 C0.99 0.33 1.98 0.66 3 1 C-4.50142766 7.24626752 -12.14813162 13.20359455 -20 19 C-20.66 18.67 -21.32 18.34 -22 18 C-19.24243509 14.28019347 -16.47262985 11.65548007 -12.6875 9 C-11.72199219 8.32066406 -10.75648438 7.64132812 -9.76171875 6.94140625 C-8.85035156 6.30074219 -7.93898438 5.66007813 -7 5 C-6.28457031 4.45214844 -5.56914063 3.90429688 -4.83203125 3.33984375 C-3.27726125 2.14973196 -1.64477818 1.06225258 0 0 Z " fill="#471F87" transform="translate(547,691)"/>
<path d="M0 0 C3.90206533 2.8378657 6.90698163 6.05369815 10.01953125 9.6953125 C12.28641718 12.33330599 14.60751048 14.91762543 16.9375 17.5 C17.70964844 18.3559375 18.48179687 19.211875 19.27734375 20.09375 C19.84582031 20.7228125 20.41429687 21.351875 21 22 C20.67 22.66 20.34 23.32 20 24 C12.62437862 17.93068759 5.26975583 11.0293125 0 3 C0 2.01 0 1.02 0 0 Z " fill="#522393" transform="translate(183,373)"/>
<path d="M0 0 C0.66 0 1.32 0 2 0 C0.40425499 3.97058906 -2.36669184 6.62939954 -5.375 9.5625 C-5.85710938 10.04396484 -6.33921875 10.52542969 -6.8359375 11.02148438 C-12.21539814 16.33516357 -12.21539814 16.33516357 -15 18 C-15.99 17.67 -16.98 17.34 -18 17 C-17.236875 16.443125 -16.47375 15.88625 -15.6875 15.3125 C-12.93022431 13.19877297 -12.93022431 13.19877297 -11.5625 10.5 C-9.56363985 7.30182376 -7.16473669 6.00218035 -4 4 C-3.2575 3.2575 -2.515 2.515 -1.75 1.75 C-1.1725 1.1725 -0.595 0.595 0 0 Z " fill="#491E8D" transform="translate(635,563)"/>
<path d="M0 0 C0 0.33 0 0.66 0 1 C-2.68711024 1.19647038 -5.37428331 1.38239615 -8.0625 1.5625 C-8.81466797 1.61857422 -9.56683594 1.67464844 -10.34179688 1.73242188 C-15.06154356 2.03889893 -19.30969988 1.78171669 -24 1 C-26.33303944 0.96296763 -28.66715242 0.95239087 -31 1 C-31 0.67 -31 0.34 -31 0 C-21.11878034 -3.49959863 -10.15953775 -1.54572941 0 0 Z " fill="#6832B9" transform="translate(263,265)"/>
<path d="M0 0 C5.07525299 0.44922202 7.99702108 2.97013303 11.8125 6.0625 C12.40998047 6.53494141 13.00746094 7.00738281 13.62304688 7.49414062 C15.08843126 8.65472506 16.54510876 9.82628832 18 11 C16.02 11.99 16.02 11.99 14 13 C9.31441048 9.32751092 9.31441048 9.32751092 7.5 7.4375 C5.93683968 5.82315111 5.93683968 5.82315111 3.375 4.5 C1 3 1 3 0 0 Z " fill="#6F33CA" transform="translate(897,403)"/>
<path d="M0 0 C1.32 0 2.64 0 4 0 C3.40674464 3.20911192 2.42413843 5.01255841 0.27734375 7.453125 C-0.26083984 8.071875 -0.79902344 8.690625 -1.35351562 9.328125 C-1.91748047 9.96234375 -2.48144531 10.5965625 -3.0625 11.25 C-3.63033203 11.8996875 -4.19816406 12.549375 -4.78320312 13.21875 C-6.1825444 14.81799717 -7.59045241 16.40974119 -9 18 C-9.99 17.67 -10.98 17.34 -12 17 C-11.50628906 16.45730469 -11.01257813 15.91460938 -10.50390625 15.35546875 C-9.86324219 14.64003906 -9.22257813 13.92460938 -8.5625 13.1875 C-7.92441406 12.47980469 -7.28632812 11.77210938 -6.62890625 11.04296875 C-4.80913988 9.00103848 -4.80913988 9.00103848 -4 6 C-2 4 -2 4 0 2 C0 1.34 0 0.68 0 0 Z " fill="#4B228C" transform="translate(649,544)"/>
<path d="M0 0 C0 3.2258434 -0.39534176 4.01171659 -2.046875 6.65234375 C-2.6965625 7.69358398 -2.6965625 7.69358398 -3.359375 8.75585938 C-4.04773438 9.83577148 -4.04773438 9.83577148 -4.75 10.9375 C-5.1934375 11.65357422 -5.636875 12.36964844 -6.09375 13.10742188 C-8.42952814 16.81375219 -10.70743504 20.05361593 -14 23 C-13.58446987 17.59810836 -12.79537196 15.69334583 -9 12 C-7.74806966 10.13266931 -6.54034243 8.23505832 -5.375 6.3125 C-2.21863118 1.10931559 -2.21863118 1.10931559 0 0 Z " fill="#5421A4" transform="translate(709,511)"/>
<path d="M0 0 C0 0.33 0 0.66 0 1 C-1.65 1 -3.3 1 -5 1 C-5 1.66 -5 2.32 -5 3 C-11.06696699 3.77040851 -16.88514973 4.09706112 -23 4 C-20.85211167 0.77816751 -20.63612127 0.5473975 -17.125 -0.25 C-11.36058781 -1.39724027 -5.78578376 -0.7244467 0 0 Z " fill="#4E228E" transform="translate(570,808)"/>
<path d="M0 0 C3.55006245 1.06501873 6.78571904 2.35260481 10.0625 4.0625 C13.02989579 5.5946103 15.65095514 6.58136939 19 7 C19 7.66 19 8.32 19 9 C19.99 9.33 20.98 9.66 22 10 C22 10.33 22 10.66 22 11 C16.55770628 10.48235253 12.46527392 9.12254006 7.625 6.625 C6.99722656 6.32078125 6.36945313 6.0165625 5.72265625 5.703125 C1.12679248 3.38037744 1.12679248 3.38037744 0 0 Z " fill="#421D7E" transform="translate(410,590)"/>
<path d="M0 0 C2.84423387 1.29416297 4.91723851 2.66150122 7.12890625 4.86328125 C7.68900391 5.42080078 8.24910156 5.97832031 8.82617188 6.55273438 C9.6856543 7.42381836 9.6856543 7.42381836 10.5625 8.3125 C11.13935547 8.88162109 11.71621094 9.45074219 12.31054688 10.03710938 C15.40604571 13.14688964 17.93369598 16.08064043 20 20 C16.7731002 18.57937485 14.60057488 16.85754559 12.109375 14.375 C11.04589844 13.31539062 11.04589844 13.31539062 9.9609375 12.234375 C9.23132813 11.49703125 8.50171875 10.7596875 7.75 10 C7.00492187 9.26265625 6.25984375 8.5253125 5.4921875 7.765625 C4.78835938 7.05921875 4.08453125 6.3528125 3.359375 5.625 C2.71452148 4.97789062 2.06966797 4.33078125 1.40527344 3.6640625 C0 2 0 2 0 0 Z " fill="#50258A" transform="translate(307,511)"/>
<path d="M0 0 C0.81374763 2.30926665 1.22041799 3.49126275 0.22729492 5.78344727 C-0.18415771 6.37182373 -0.59561035 6.9602002 -1.01953125 7.56640625 C-1.46490234 8.21673828 -1.91027344 8.86707031 -2.36914062 9.53710938 C-2.84544922 10.20548828 -3.32175781 10.87386719 -3.8125 11.5625 C-4.27720703 12.23474609 -4.74191406 12.90699219 -5.22070312 13.59960938 C-6.08779916 14.85235788 -6.96006439 16.10155552 -7.83911133 17.34594727 C-8.91643661 18.88093754 -9.95975966 20.43963949 -11 22 C-11.99 21.67 -12.98 21.34 -14 21 C-7 10.5 -7 10.5 0 0 Z " fill="#502495" transform="translate(802,662)"/>
<path d="M0 0 C3.79734263 1.26578088 4.78908048 2.93472291 7.25 6.0625 C11.04796222 10.82393872 14.94845898 15.45341539 19 20 C16 20 16 20 13.67578125 17.91796875 C10.7839875 14.764436 7.95503784 11.57516477 5.1875 8.3125 C4.68541016 7.73177734 4.18332031 7.15105469 3.66601562 6.55273438 C0 2.23830782 0 2.23830782 0 0 Z " fill="#461D8C" transform="translate(209,403)"/>
<path d="M0 0 C3.5624827 -0.02913821 7.12493454 -0.04684529 10.6875 -0.0625 C12.19860352 -0.07506836 12.19860352 -0.07506836 13.74023438 -0.08789062 C14.71669922 -0.09111328 15.69316406 -0.09433594 16.69921875 -0.09765625 C18.04246216 -0.10551147 18.04246216 -0.10551147 19.4128418 -0.11352539 C22.03641759 0.00159802 24.44293053 0.41765715 27 1 C21.35352769 4.13692906 17.54061531 4.06787574 11.42578125 2.546875 C7.64369048 1.69422974 3.85679927 1.36731422 0 1 C0 0.67 0 0.34 0 0 Z " fill="#783ED0" transform="translate(817,374)"/>
<path d="M0 0 C0.66 0.33 1.32 0.66 2 1 C-2.87250622 7.77088527 -7.82818412 14.45442053 -13 21 C-13.33 20.01 -13.66 19.02 -14 18 C-12.93603516 16.11474609 -12.93603516 16.11474609 -11.2890625 14.0234375 C-10.70382812 13.270625 -10.11859375 12.5178125 -9.515625 11.7421875 C-8.57976563 10.57042969 -8.57976563 10.57042969 -7.625 9.375 C-7.00882813 8.58609375 -6.39265625 7.7971875 -5.7578125 6.984375 C-1.3188244 1.3188244 -1.3188244 1.3188244 0 0 Z " fill="#52229A" transform="translate(687,543)"/>
<path d="M0 0 C0.99 0.33 1.98 0.66 3 1 C-2.98178131 5.35923665 -8.9679406 9.71053554 -15 14 C-15.66 13.67 -16.32 13.34 -17 13 C-13.54268552 9.36407887 -10.05831519 6.44533029 -5.875 3.625 C-4.84117187 2.91601562 -3.80734375 2.20703125 -2.7421875 1.4765625 C-1.83726562 0.98929688 -0.93234375 0.50203125 0 0 Z " fill="#48218C" transform="translate(515,715)"/>
<path d="M0 0 C1.17755859 0.13535156 1.17755859 0.13535156 2.37890625 0.2734375 C4.4375 0.625 4.4375 0.625 6.4375 1.625 C8.43710012 1.664992 10.43797242 1.66846799 12.4375 1.625 C12.4375 2.285 12.4375 2.945 12.4375 3.625 C9.85353321 3.70612454 7.27212432 3.76554748 4.6875 3.8125 C3.59308594 3.85020508 3.59308594 3.85020508 2.4765625 3.88867188 C-0.90736604 3.93481636 -3.14108557 3.87824128 -6.078125 2.11328125 C-6.56796875 1.62214844 -7.0578125 1.13101563 -7.5625 0.625 C-4.51490395 -0.39086535 -3.11156747 -0.37933442 0 0 Z " fill="#3E1487" transform="translate(447.5625,803.375)"/>
<path d="M0 0 C0 0.66 0 1.32 0 2 C-3.63683183 3.16898166 -6.93834538 3.02874952 -10.734375 2.87890625 C-12.02988281 2.83056641 -13.32539062 2.78222656 -14.66015625 2.73242188 C-16.02344263 2.67590496 -17.38672383 2.61926274 -18.75 2.5625 C-20.12888612 2.50924178 -21.50779235 2.45650166 -22.88671875 2.40429688 C-26.25804533 2.27463047 -29.62907518 2.13966346 -33 2 C-33 1.67 -33 1.34 -33 1 C-29.37516606 0.8295902 -25.75011226 0.66437396 -22.125 0.5 C-21.11179687 0.45230469 -20.09859375 0.40460938 -19.0546875 0.35546875 C-12.69773104 0.0702207 -6.36317946 -0.06350831 0 0 Z " fill="#7C47BF" transform="translate(689,477)"/>
<path d="M0 0 C-2.25216145 3.09672199 -5.01994536 3.83992251 -8.66015625 4.66015625 C-12.76794857 5.25678051 -16.86097756 5.15266886 -21 5 C-18.27960591 2.27960591 -15.93509713 2.15198872 -12.1875 1.375 C-10.96417969 1.11460937 -9.74085938 0.85421875 -8.48046875 0.5859375 C-5.5522772 0.09297596 -2.95485688 -0.12382257 0 0 Z " fill="#371474" transform="translate(610,800)"/>
<path d="M0 0 C2 1 2 1 2 1 Z M-2 1 C-1.34 1.33 -0.68 1.66 0 2 C-2.40948814 4.29931452 -4.82878201 6.58804548 -7.25 8.875 C-7.93191406 9.52597656 -8.61382813 10.17695312 -9.31640625 10.84765625 C-9.98027344 11.47285156 -10.64414062 12.09804688 -11.328125 12.7421875 C-11.9355957 13.3182373 -12.54306641 13.89428711 -13.16894531 14.48779297 C-15.02387642 16.01971874 -16.81257145 17.01607943 -19 18 C-9.29968051 4.44707135 -9.29968051 4.44707135 -2 1 Z " fill="#441790" transform="translate(604,643)"/>
<path d="M0 0 C0.66 0 1.32 0 2 0 C1.51523823 4.63866869 -0.26243382 6.91285248 -3.375 10.3125 C-4.16648437 11.19550781 -4.95796875 12.07851563 -5.7734375 12.98828125 C-8 15 -8 15 -11 15 C-11 14.01 -11 13.02 -11 12 C-9.33333333 11 -7.66666667 10 -6 9 C-3.2863789 6.27134499 -1.23198832 3.69596496 0 0 Z " fill="#491F8E" transform="translate(779,693)"/>
<path d="M0 0 C5.72210596 1.86763181 11.37661751 3.85289032 17 6 C17 6.66 17 7.32 17 8 C13.81745345 7.54535049 10.92492672 6.97447508 7.875 5.9375 C4.87017887 4.7933196 4.87017887 4.7933196 1 5 C0.67 3.35 0.34 1.7 0 0 Z " fill="#4D1F80" transform="translate(433,601)"/>
<path d="M0 0 C2.71224618 1.61268692 5.37352812 3.24901874 8 5 C8 5.66 8 6.32 8 7 C9.32 7.33 10.64 7.66 12 8 C12 8.66 12 9.32 12 10 C12.639375 10.28875 13.27875 10.5775 13.9375 10.875 C16 12 16 12 17 14 C12.64826601 13.11948891 9.69759025 10.79972386 6.25 8.125 C5.64800781 7.67769531 5.04601562 7.23039062 4.42578125 6.76953125 C2.88941682 5.58851641 1.43707376 4.30001182 0 3 C0 2.01 0 1.02 0 0 Z " fill="#5A2AA0" transform="translate(118,312)"/>
<path d="M0 0 C-2.48434437 2.34290892 -3.77731593 2.97982934 -7.234375 3.29296875 C-8.39453125 3.25816406 -9.5546875 3.22335937 -10.75 3.1875 C-11.92046875 3.16042969 -13.0909375 3.13335938 -14.296875 3.10546875 C-15.18890625 3.07066406 -16.0809375 3.03585937 -17 3 C-16.01 2.67 -15.02 2.34 -14 2 C-14 1.34 -14 0.68 -14 0 C-9.02936879 -0.91297308 -4.97063121 -0.91297308 0 0 Z " fill="#3E1582" transform="translate(588,805)"/>
<path d="M0 0 C2.125 0.375 2.125 0.375 4 1 C2.19587357 4.26460973 1.16605307 5.88929795 -2 8 C-2.66 8 -3.32 8 -4 8 C-5.34882408 8.63474075 -6.6846659 9.29848848 -8 10 C-7.04367001 8.70684939 -6.08486149 7.41553147 -5.125 6.125 C-4.59132813 5.40570312 -4.05765625 4.68640625 -3.5078125 3.9453125 C-2 2 -2 2 0 0 Z " fill="#4B1E98" transform="translate(569,672)"/>
<path d="M0 0 C13.6332574 -0.55353075 13.6332574 -0.55353075 20 3 C20 3.33 20 3.66 20 4 C12.78528371 4.35482211 6.87581298 3.1591338 0 1 C0 0.67 0 0.34 0 0 Z " fill="#52238E" transform="translate(410,798)"/>
<path d="M0 0 C0.99 0.33 1.98 0.66 3 1 C2.40984815 6.50808397 1.43336231 11.64878069 0 17 C-0.33 17 -0.66 17 -1 17 C-1.02691685 14.54159395 -1.04679802 12.08348118 -1.0625 9.625 C-1.07087891 8.92632813 -1.07925781 8.22765625 -1.08789062 7.5078125 C-1.11328125 2.2265625 -1.11328125 2.2265625 0 0 Z " fill="#6730BB" transform="translate(849,520)"/>
<path d="M0 0 C0.33 0 0.66 0 1 0 C0.55259069 6.15187805 -0.6478927 11.71754125 -4 17 C-4.99 17.33 -5.98 17.66 -7 18 C-5.06375702 11.79522136 -2.74390859 5.89174281 0 0 Z " fill="#4B2091" transform="translate(683,487)"/>
<path d="M0 0 C10.395 0.99 10.395 0.99 21 2 C21 2.33 21 2.66 21 3 C18.60458732 3.19585135 16.20907226 3.38192107 13.8125 3.5625 C12.80219727 3.64661133 12.80219727 3.64661133 11.77148438 3.73242188 C7.982869 4.00963763 4.68172206 3.96511161 1 3 C0.67 2.01 0.34 1.02 0 0 Z " fill="#673AB2" transform="translate(632,475)"/>
<path d="M0 0 C-6.54158399 3.65111665 -12.63879629 3.29887594 -20 3 C-20 2.67 -20 2.34 -20 2 C-17.41842632 1.46867611 -14.83538244 0.94965621 -12.25 0.4375 C-11.52039063 0.28603516 -10.79078125 0.13457031 -10.0390625 -0.02148438 C-6.33442927 -0.74557178 -3.60677678 -1.09817231 0 0 Z " fill="#3B1770" transform="translate(552,616)"/>
<path d="M0 0 C0.33 0 0.66 0 1 0 C1.25287193 6.06892629 0.69832609 11.16200408 -1 17 C-1.66 17 -2.32 17 -3 17 C-3.33 17.99 -3.66 18.98 -4 20 C-3.42978625 13.04339229 -1.98697306 6.68572695 0 0 Z " fill="#5625A8" transform="translate(842,555)"/>
<path d="M0 0 C1.48521677 0.75911079 2.96303425 1.53271234 4.4375 2.3125 C5.67306641 2.95638672 5.67306641 2.95638672 6.93359375 3.61328125 C9 5 9 5 10 8 C9.01 8 8.02 8 7 8 C7 8.66 7 9.32 7 10 C4.69 10 2.38 10 0 10 C0 9.67 0 9.34 0 9 C1.65 9 3.3 9 5 9 C3.31192092 4.76915097 3.31192092 4.76915097 0 2 C0 1.34 0 0.68 0 0 Z " fill="#CF98FB" transform="translate(804,202)"/>
<path d="M0 0 C-1 2 -1 2 -3.625 3.125 C-7.21810788 4.05654649 -10.30415624 4.14783375 -14 4 C-14 3.34 -14 2.68 -14 2 C-9.27249283 -0.08566493 -5.03603003 -1.67867668 0 0 Z " fill="#44198A" transform="translate(655,786)"/>
<path d="M0 0 C-0.99 0.61875 -1.98 1.2375 -3 1.875 C-3.99 2.57625 -4.98 3.2775 -6 4 C-6 4.66 -6 5.32 -6 6 C-8.31 6.33 -10.62 6.66 -13 7 C-11.85343125 3.56029374 -11.15481722 3.1217771 -8.1875 1.25 C-7.50042969 0.80140625 -6.81335938 0.3528125 -6.10546875 -0.109375 C-3.60065169 -1.16892656 -2.50718765 -0.92399724 0 0 Z " fill="#451E8B" transform="translate(463,752)"/>
<path d="M0 0 C0 4.09459203 -1.96927276 6.76750835 -4 10.1875 C-4.57234375 11.16879883 -4.57234375 11.16879883 -5.15625 12.16992188 C-6.09838932 13.78333545 -7.04844266 15.39212298 -8 17 C-8.70703125 15.38671875 -8.70703125 15.38671875 -9 13 C-7.63671875 10.01953125 -7.63671875 10.01953125 -5.6875 6.8125 C-4.73423828 5.21341797 -4.73423828 5.21341797 -3.76171875 3.58203125 C-2 1 -2 1 0 0 Z " fill="#5721A9" transform="translate(725,484)"/>
<path d="M0 0 C4.23429756 1.31061591 8.07407404 2.94356259 12 5 C11.01 5.495 11.01 5.495 10 6 C10 6.66 10 7.32 10 8 C6.66666667 6.33333333 3.33333333 4.66666667 0 3 C0 2.01 0 1.02 0 0 Z " fill="#7639D2" transform="translate(865,383)"/>
<path d="M0 0 C4.13813705 0.53176995 6.27082318 2.77932166 9.25 5.5625 C10.14203125 6.38878906 11.0340625 7.21507812 11.953125 8.06640625 C12.62859375 8.70449219 13.3040625 9.34257812 14 10 C13.67 10.66 13.34 11.32 13 12 C11.20425007 10.56760415 9.41353093 9.1288996 7.625 7.6875 C6.62726563 6.88699219 5.62953125 6.08648437 4.6015625 5.26171875 C2 3 2 3 0 0 Z " fill="#5623A5" transform="translate(451,379)"/>
<path d="M0 0 C7.4972067 -0.36871508 7.4972067 -0.36871508 9.875 1.375 C10.24625 1.91125 10.6175 2.4475 11 3 C11.66 3.66 12.32 4.32 13 5 C11.02 5.33 9.04 5.66 7 6 C6.67 5.01 6.34 4.02 6 3 C4.35 3 2.7 3 1 3 C0.67 2.01 0.34 1.02 0 0 Z " fill="#6933BE" transform="translate(336,288)"/>
<path d="M0 0 C0.66 0.33 1.32 0.66 2 1 C-4.20440882 7.37675351 -4.20440882 7.37675351 -7 9 C-9.25 8.6875 -9.25 8.6875 -11 8 C-8.85199157 5.63719073 -6.83319533 4.41659766 -4 3 C-3.67 2.34 -3.34 1.68 -3 1 C-2.01 0.67 -1.02 0.34 0 0 Z " fill="#431D86" transform="translate(724,746)"/>
<path d="M0 0 C-0.66 0 -1.32 0 -2 0 C-2 0.66 -2 1.32 -2 2 C-3.4375 3.6875 -3.4375 3.6875 -6 5 C-9.05338255 4.95795687 -11.99660996 4.53265251 -15 4 C-12.69846709 1.69846709 -11.15124095 1.2422972 -8.0625 0.3125 C-7.18722656 0.04050781 -6.31195312 -0.23148438 -5.41015625 -0.51171875 C-3 -1 -3 -1 0 0 Z " fill="#3D1B81" transform="translate(568,611)"/>
<path d="M0 0 C7.41017023 -0.11459026 14.64206267 0.08839714 22 1 C22 1.33 22 1.66 22 2 C16.94997778 3.03590199 12.12583611 3.10251672 7 3 C7 2.67 7 2.34 7 2 C4.69 1.67 2.38 1.34 0 1 C0 0.67 0 0.34 0 0 Z " fill="#7B42BF" transform="translate(216,261)"/>
<path d="M0 0 C1.32 0.33 2.64 0.66 4 1 C4 1.99 4 2.98 4 4 C0.37 5.32 -3.26 6.64 -7 8 C-7 7.01 -7 6.02 -7 5 C-4.69 4.01 -2.38 3.02 0 2 C0 1.34 0 0.68 0 0 Z " fill="#D097FB" transform="translate(593,176)"/>
<path d="M0 0 C0.66 0.33 1.32 0.66 2 1 C-1.02562647 4.25836697 -4.11541911 6.81492325 -8 9 C-9.32 8.67 -10.64 8.34 -12 8 C-8.04 5.36 -4.08 2.72 0 0 Z " fill="#542894" transform="translate(497,727)"/>
<path d="M0 0 C-0.33 0.66 -0.66 1.32 -1 2 C-1.99 2 -2.98 2 -4 2 C-4 2.66 -4 3.32 -4 4 C-6.76264289 4.59732819 -9.16032769 5 -12 5 C-12.33 4.01 -12.66 3.02 -13 2 C-8.50343896 -0.24828052 -4.92127034 -0.16682272 0 0 Z " fill="#7A3ED8" transform="translate(811,378)"/>
<path d="M0 0 C-0.99 0 -1.98 0 -3 0 C-3 0.66 -3 1.32 -3 2 C-7.92737019 3.97094808 -11.78020872 4.1799928 -17 4 C-14.23719462 2.15812975 -12.19292174 1.27751723 -9.0625 0.3125 C-7.78052734 -0.09548828 -7.78052734 -0.09548828 -6.47265625 -0.51171875 C-3.89489426 -1.02075548 -2.45550663 -0.84888744 0 0 Z " fill="#6637A8" transform="translate(85,275)"/>
<path d="M0 0 C0.66 0.33 1.32 0.66 2 1 C-1.13922331 5.52048157 -4.21495828 7.51545911 -9 10 C-9 7 -9 7 -7 5 C-6.360625 4.690625 -5.72125 4.38125 -5.0625 4.0625 C-2.92969416 2.96378184 -1.60375287 1.76412816 0 0 Z " fill="#462086" transform="translate(737,736)"/>
<path d="M0 0 C0.33 1.32 0.66 2.64 1 4 C-0.43554025 4.50559908 -1.8735202 5.0042749 -3.3125 5.5 C-4.51326172 5.91765625 -4.51326172 5.91765625 -5.73828125 6.34375 C-8 7 -8 7 -11 7 C-10.67 5.68 -10.34 4.36 -10 3 C-8.906875 2.87625 -7.81375 2.7525 -6.6875 2.625 C-2.92618198 2.24535199 -2.92618198 2.24535199 0 0 Z " fill="#7033C3" transform="translate(921,439)"/>
<path d="M0 0 C1.4391134 0.28359887 2.87625518 0.57721399 4.3125 0.875 C5.11300781 1.03742188 5.91351562 1.19984375 6.73828125 1.3671875 C9 2 9 2 12 4 C11.67 4.66 11.34 5.32 11 6 C9.53815942 5.77139942 8.08044581 5.51629608 6.625 5.25 C5.40683594 5.04117187 5.40683594 5.04117187 4.1640625 4.828125 C2 4 2 4 0.7109375 1.921875 C0.47632813 1.28765625 0.24171875 0.6534375 0 0 Z " fill="#7C3FD4" transform="translate(849,377)"/>
<path d="M0 0 C5 2 10 4 15 6 C14.34 6.66 13.68 7.32 13 8 C9.12908647 7.70223742 7.61094552 6.71973492 5 4 C2.40084462 2.80972016 2.40084462 2.80972016 0 2 C0 1.34 0 0.68 0 0 Z " fill="#C996F8" transform="translate(771,184)"/>
<path d="M0 0 C5.74685197 2.62137108 10.54179829 5.47213889 15 10 C15 10.33 15 10.66 15 11 C12.69 11 10.38 11 8 11 C8.99 10.67 9.98 10.34 11 10 C7.72291137 6.32966073 4.28477792 4.30718811 0 2 C0 1.34 0 0.68 0 0 Z " fill="#BF8FEE" transform="translate(803,200)"/>
<path d="M0 0 C2.88080957 1.17366316 4.34257199 2.35092741 6.5625 4.625 C8.7909084 7.34893236 8.7909084 7.34893236 12 7 C12 7.99 12 8.98 12 10 C7.65574165 9.51980564 5.93796082 8.35568204 3.1875 5 C2.58292969 4.278125 1.97835938 3.55625 1.35546875 2.8125 C0 1 0 1 0 0 Z " fill="#40187E" transform="translate(324,527)"/>
<path d="M0 0 C0.99 0.66 1.98 1.32 3 2 C0.03 4.31 -2.94 6.62 -6 9 C-6.99 8.34 -7.98 7.68 -9 7 C-6.03 4.69 -3.06 2.38 0 0 Z " fill="#C792FB" transform="translate(554,199)"/>
<path d="M0 0 C-1.65091778 4.29238623 -4.73754566 6.8793915 -8 10 C-8.99 9.67 -9.98 9.34 -11 9 C-9.54782324 7.49403892 -8.08807139 5.99537896 -6.625 4.5 C-5.40683594 3.24703125 -5.40683594 3.24703125 -4.1640625 1.96875 C-2 0 -2 0 0 0 Z " fill="#3D177C" transform="translate(637,563)"/>
<path d="M0 0 C2.64443027 -0.3888868 4.38826202 -0.39540909 6.66796875 1.078125 C8.16931734 2.31914474 9.59025705 3.65582649 11 5 C11 5.33 11 5.66 11 6 C8.35556973 6.3888868 6.61173798 6.39540909 4.33203125 4.921875 C2.83068266 3.68085526 1.40974295 2.34417351 0 1 C0 0.67 0 0.34 0 0 Z " fill="#7035C8" transform="translate(919,421)"/>
<path d="M0 0 C-0.33 0.66 -0.66 1.32 -1 2 C-3.28515625 2.6328125 -3.28515625 2.6328125 -6.0625 3.125 C-6.98160156 3.29257813 -7.90070312 3.46015625 -8.84765625 3.6328125 C-9.91306641 3.81457031 -9.91306641 3.81457031 -11 4 C-11.33 3.01 -11.66 2.02 -12 1 C-3.96428571 -1.27678571 -3.96428571 -1.27678571 0 0 Z " fill="#CA96FA" transform="translate(625,170)"/>
<path d="M0 0 C1.65 0 3.3 0 5 0 C5 0.99 5 1.98 5 3 C1.77208445 5.1519437 0.71599191 5.20086443 -3 5 C-2.67 4.01 -2.34 3.02 -2 2 C-1.34 2 -0.68 2 0 2 C0 1.34 0 0.68 0 0 Z " fill="#451A8B" transform="translate(597,592)"/>
<path d="M0 0 C7.48291572 6.15034169 7.48291572 6.15034169 10 10 C7 10 7 10 5.17578125 8.57421875 C4.56089844 7.95160156 3.94601562 7.32898438 3.3125 6.6875 C2.37857422 5.76517578 2.37857422 5.76517578 1.42578125 4.82421875 C0 3 0 3 0 0 Z " fill="#42197F" transform="translate(298,501)"/>
<path d="M0 0 C0 0.99 0 1.98 0 3 C-0.66 2.67 -1.32 2.34 -2 2 C-1.34 1.34 -0.68 0.68 0 0 Z M-3 3 C-2.67 3.66 -2.34 4.32 -2 5 C-2.66 4.67 -3.32 4.34 -4 4 C-3.67 3.67 -3.34 3.34 -3 3 Z M-8 5 C-7.34 5.99 -6.68 6.98 -6 8 C-7.32 9.32 -8.64 10.64 -10 12 C-10.66 11.67 -11.32 11.34 -12 11 C-9.125 6.125 -9.125 6.125 -8 5 Z " fill="#CE97FC" transform="translate(542,210)"/>
<path d="M0 0 C1 4 1 4 0.00390625 6.140625 C-0.47175781 6.83671875 -0.94742188 7.5328125 -1.4375 8.25 C-1.91058594 8.95640625 -2.38367188 9.6628125 -2.87109375 10.390625 C-3.24363281 10.92171875 -3.61617187 11.4528125 -4 12 C-4.99 11.67 -5.98 11.34 -7 11 C-4.69 7.37 -2.38 3.74 0 0 Z " fill="#471C88" transform="translate(668,519)"/>
<path d="M0 0 C3 0 3 0 4.5 1.3125 C4.995 1.869375 5.49 2.42625 6 3 C6.556875 3.556875 7.11375 4.11375 7.6875 4.6875 C8.3371875 5.3371875 8.3371875 5.3371875 9 6 C8.01 6.495 8.01 6.495 7 7 C5.0546875 6.22265625 5.0546875 6.22265625 2.875 5.0625 C2.15054688 4.68222656 1.42609375 4.30195313 0.6796875 3.91015625 C0.12539062 3.60980469 -0.42890625 3.30945313 -1 3 C-0.67 2.01 -0.34 1.02 0 0 Z " fill="#6438A5" transform="translate(65,279)"/>
<path d="M0 0 C0.66 0 1.32 0 2 0 C1.58578031 4.83256305 -0.46413986 6.82679218 -4 10 C-4.66 9.67 -5.32 9.34 -6 9 C-5.071875 7.88625 -5.071875 7.88625 -4.125 6.75 C-2.39562719 4.51198812 -1.13893339 2.56260013 0 0 Z " fill="#572997" transform="translate(757,717)"/>
<path d="M0 0 C0.66 0.33 1.32 0.66 2 1 C-0.33333333 3.33333333 -2.66666667 5.66666667 -5 8 C-6.32 7.67 -7.64 7.34 -9 7 C-6.03 4.69 -3.06 2.38 0 0 Z " fill="#5B329C" transform="translate(525,707)"/>
<path d="M0 0 C0.33 0.66 0.66 1.32 1 2 C0.07421875 3.91015625 0.07421875 3.91015625 -1.3125 6.0625 C-1.76238281 6.77535156 -2.21226562 7.48820313 -2.67578125 8.22265625 C-4 10 -4 10 -6 11 C-5.835 10.401875 -5.67 9.80375 -5.5 9.1875 C-4.8885876 6.88655664 -4.8885876 6.88655664 -5 4 C-4.34 3.34 -3.68 2.68 -3 2 C-2.67 2.33 -2.34 2.66 -2 3 C-1.34 2.01 -0.68 1.02 0 0 Z " fill="#692FC8" transform="translate(714,505)"/>
<path d="M0 0 C7.625 0.875 7.625 0.875 11 2 C11 2.66 11 3.32 11 4 C11.66 4.33 12.32 4.66 13 5 C11.58194169 4.71517632 10.16559621 4.42181856 8.75 4.125 C7.96109375 3.96257812 7.1721875 3.80015625 6.359375 3.6328125 C4.03168856 3.00849925 2.10968048 2.15161458 0 1 C0 0.67 0 0.34 0 0 Z " fill="#522496" transform="translate(585,463)"/>
<path d="M0 0 C3.86933162 0.57323431 6.15222057 2.38953552 9 5 C9 5.66 9 6.32 9 7 C9.99 7.33 10.98 7.66 12 8 C11.01 8.33 10.02 8.66 9 9 C7.49704815 7.69088122 5.99770689 6.37761608 4.5 5.0625 C3.6646875 4.33160156 2.829375 3.60070312 1.96875 2.84765625 C1.3190625 2.23792969 0.669375 1.62820313 0 1 C0 0.67 0 0.34 0 0 Z " fill="#5A28A6" transform="translate(439,368)"/>
<path d="M0 0 C3.25597758 0.24118352 4.7276304 1.52224212 6.8125 3.875 C7.534375 4.90625 8.25625 5.9375 9 7 C8.67 7.99 8.34 8.98 8 10 C6.66070495 8.71451591 5.32871357 7.42141845 4 6.125 C2.88625 5.04605469 2.88625 5.04605469 1.75 3.9453125 C0 2 0 2 0 0 Z " fill="#5E33A1" transform="translate(174,365)"/>
<path d="M0 0 C-2.54797371 3.1141901 -5.23021354 3.82194173 -9 5 C-9.99 5.66 -10.98 6.32 -12 7 C-12.66 6.34 -13.32 5.68 -14 5 C-12.61217515 4.1533966 -11.21430603 3.32324661 -9.8125 2.5 C-9.03519531 2.0359375 -8.25789062 1.571875 -7.45703125 1.09375 C-4.75896614 -0.10729647 -2.9193018 -0.20741043 0 0 Z " fill="#C693F8" transform="translate(577,188)"/>
<path d="M0 0 C-0.66 1.65 -1.32 3.3 -2 5 C-4.31 5 -6.62 5 -9 5 C-6.45523312 2.20075644 -3.92372883 0 0 0 Z " fill="#502894" transform="translate(407,782)"/>
<path d="M0 0 C1.38609004 3.15020465 0.89180331 4.31918022 -0.25 7.6875 C-2 11 -2 11 -5 12 C-3.68938409 7.76570244 -2.05643741 3.92592596 0 0 Z " fill="#4F2196" transform="translate(817,633)"/>
<path d="M0 0 C4.40114397 0.50298788 6.71195019 2.08772731 10 5 C9.67 5.99 9.34 6.98 9 8 C7.49712782 6.85793642 5.99776716 5.71125043 4.5 4.5625 C3.6646875 3.92441406 2.829375 3.28632812 1.96875 2.62890625 C1.3190625 2.09136719 0.669375 1.55382812 0 1 C0 0.67 0 0.34 0 0 Z " fill="#4A2385" transform="translate(359,558)"/>
<path d="M0 0 C1 4 1 4 0.00390625 5.921875 C-0.47175781 6.52515625 -0.94742188 7.1284375 -1.4375 7.75 C-1.91058594 8.36359375 -2.38367188 8.9771875 -2.87109375 9.609375 C-3.24363281 10.06828125 -3.61617187 10.5271875 -4 11 C-4.99 10.67 -5.98 10.34 -7 10 C-3.535 5.05 -3.535 5.05 0 0 Z " fill="#431D85" transform="translate(660,532)"/>
<path d="M0 0 C0.33 0.66 0.66 1.32 1 2 C-0.21484375 4.6015625 -0.21484375 4.6015625 -1.9375 7.625 C-2.78634766 9.12933594 -2.78634766 9.12933594 -3.65234375 10.6640625 C-4.09707031 11.43492187 -4.54179688 12.20578125 -5 13 C-5.85276722 10.58292094 -6.12087895 9.35996549 -5.29296875 6.89453125 C-4.92816406 6.20746094 -4.56335938 5.52039063 -4.1875 4.8125 C-3.83042969 4.11769531 -3.47335937 3.42289062 -3.10546875 2.70703125 C-2 1 -2 1 0 0 Z " fill="#5A24A9" transform="translate(733,469)"/>
<path d="M0 0 C2.87839991 1.2903172 5.09054786 2.45406381 7 5 C7.6875 8.1875 7.6875 8.1875 8 11 C6.29115995 9.37660195 4.62553283 7.70680947 3 6 C3 5.34 3 4.68 3 4 C2.03886134 2.63838689 1.04115841 1.30144802 0 0 Z " fill="#521FA0" transform="translate(272,473)"/>
<path d="M0 0 C7.26153846 -0.49230769 7.26153846 -0.49230769 11 2 C11.66 2.66 12.32 3.32 13 4 C8.428721 3.45144652 4.32564205 2.58255197 0 1 C0 0.67 0 0.34 0 0 Z " fill="#4B1F91" transform="translate(599,468)"/>
<path d="M0 0 C2 1 2 1 3 3 C2.67 3.66 2.34 4.32 2 5 C3.32 5.33 4.64 5.66 6 6 C5.01 6.495 5.01 6.495 4 7 C1.64018187 6.06421005 -0.69631264 5.06652192 -3 4 C-3 3.34 -3 2.68 -3 2 C-2.01 1.34 -1.02 0.68 0 0 Z " fill="#5C3598" transform="translate(393,788)"/>
<path d="M0 0 C1.28222189 3.03070628 0.98589446 4.03596914 -0.25 7.1875 C-2 10 -2 10 -5 11 C-4.54546538 6.90918838 -4.20080221 4.66733517 -1 2 C-0.67 1.34 -0.34 0.68 0 0 Z " fill="#4A1C94" transform="translate(809,649)"/>
<path d="M0 0 C1.32 0.33 2.64 0.66 4 1 C1.36 2.98 -1.28 4.96 -4 7 C-4.66 6.67 -5.32 6.34 -6 6 C-4 4 -2 2 0 0 Z " fill="#421C86" transform="translate(504,722)"/>
<path d="M0 0 C-1.44253657 3.36591866 -3.33264727 5.51047079 -6 8 C-6.99 7.67 -7.98 7.34 -9 7 C-7.88121617 5.82737096 -6.75476949 4.66204862 -5.625 3.5 C-4.68527344 2.52546875 -4.68527344 2.52546875 -3.7265625 1.53125 C-2 0 -2 0 0 0 Z " fill="#491F8C" transform="translate(626,620)"/>
<path d="M0 0 C-2.52956528 3.0916909 -5.22454612 3.90931332 -9 5 C-8.67 4.01 -8.34 3.02 -8 2 C-7.34 2 -6.68 2 -6 2 C-6 1.34 -6 0.68 -6 0 C-2.25 -1.125 -2.25 -1.125 0 0 Z " fill="#431B7F" transform="translate(593,599)"/>
<path d="M0 0 C3.68754757 0.49831724 5.60490662 1.10067643 8 4 C5.39417629 4.93065133 4.35801776 5.14917407 1.75 4.0625 C1.1725 3.711875 0.595 3.36125 0 3 C0 2.01 0 1.02 0 0 Z " fill="#7237D2" transform="translate(888,397)"/>
<path d="M0 0 C-1.41519715 2.0343459 -2.54982123 2.90410393 -4.98046875 3.421875 C-6.98176954 3.66273952 -8.9909944 3.83532741 -11 4 C-10.67 3.01 -10.34 2.02 -10 1 C-6.59437148 0.22157062 -3.49234244 -0.09978121 0 0 Z " fill="#4A2287" transform="translate(610,800)"/>
<path d="M0 0 C0.66 0.33 1.32 0.66 2 1 C-0.64 3.97 -3.28 6.94 -6 10 C-6.33 9.01 -6.66 8.02 -7 7 C-4.69 4.69 -2.38 2.38 0 0 Z " fill="#461A8B" transform="translate(637,606)"/>
<path d="M0 0 C2.97 0.99 5.94 1.98 9 3 C9 3.33 9 3.66 9 4 C7.35 4 5.7 4 4 4 C4 4.66 4 5.32 4 6 C3.01 5.67 2.02 5.34 1 5 C0.67 3.35 0.34 1.7 0 0 Z " fill="#42237C" transform="translate(433,601)"/>
<path d="M0 0 C0 0.99 0 1.98 0 3 C-3.63 3 -7.26 3 -11 3 C-6.75707862 0.87853931 -4.7245591 0 0 0 Z " fill="#6231B5" transform="translate(942,436)"/>
<path d="M0 0 C2.25 0.125 2.25 0.125 5 1 C7.3125 4.0625 7.3125 4.0625 9 7 C6 7 6 7 4.39453125 5.46875 C3.87246094 4.8190625 3.35039062 4.169375 2.8125 3.5 C2.28269531 2.8503125 1.75289062 2.200625 1.20703125 1.53125 C0.80871094 1.0259375 0.41039062 0.520625 0 0 Z " fill="#612AA0" transform="translate(201,396)"/>
<path d="M0 0 C0 0.99 0 1.98 0 3 C-3.63 2.67 -7.26 2.34 -11 2 C-11 1.67 -11 1.34 -11 1 C-7.27569643 0.30710631 -3.78916254 -0.11144596 0 0 Z " fill="#CB9AFA" transform="translate(648,165)"/>
<path d="M0 0 C0.99 0.33 1.98 0.66 3 1 C-0.465 3.97 -0.465 3.97 -4 7 C-4.66 6.67 -5.32 6.34 -6 6 C-2.25 1.125 -2.25 1.125 0 0 Z " fill="#421C8A" transform="translate(547,691)"/>
<path d="M0 0 C0.33 0 0.66 0 1 0 C0.50769231 6.4 0.50769231 6.4 -2.0625 9.4375 C-2.701875 9.953125 -3.34125 10.46875 -4 11 C-3.52269162 9.5410574 -3.04308958 8.08286504 -2.5625 6.625 C-2.29566406 5.81289063 -2.02882813 5.00078125 -1.75390625 4.1640625 C-1 2 -1 2 0 0 Z " fill="#4C1C94" transform="translate(823,619)"/>
<path d="M0 0 C2.0625 0.4375 2.0625 0.4375 4 1 C2.02 3.97 2.02 3.97 0 7 C-0.99 6.67 -1.98 6.34 -3 6 C-1.125 1.125 -1.125 1.125 0 0 Z " fill="#793CD5" transform="translate(761,414)"/>
<path d="M0 0 C1.62490954 -0.02698189 3.24994633 -0.04638757 4.875 -0.0625 C5.77992188 -0.07410156 6.68484375 -0.08570313 7.6171875 -0.09765625 C10 0 10 0 12 1 C11.67 1.66 11.34 2.32 11 3 C6.91281305 3.24042276 3.82320557 2.42258812 0 1 C0 0.67 0 0.34 0 0 Z " fill="#CE9BF9" transform="translate(652,164)"/>
<path d="M0 0 C3.24208567 0.35049575 4.61527704 0.56221181 6.8125 3.0625 C7.204375 3.701875 7.59625 4.34125 8 5 C5.125 4.75 5.125 4.75 2 4 C0.625 1.9375 0.625 1.9375 0 0 Z " fill="#41197F" transform="translate(383,574)"/>
<path d="M0 0 C1.32 0 2.64 0 4 0 C3.8125 1.8125 3.8125 1.8125 3 4 C0.4375 5.75 0.4375 5.75 -2 7 C-1.67 6.21625 -1.34 5.4325 -1 4.625 C0.11866511 2.15667503 0.11866511 2.15667503 0 0 Z " fill="#421B84" transform="translate(649,544)"/>
<path d="M0 0 C0.33 0 0.66 0 1 0 C0.38461538 6.52307692 0.38461538 6.52307692 -1.5625 8.9375 C-2.036875 9.288125 -2.51125 9.63875 -3 10 C-3.33 9.34 -3.66 8.68 -4 8 C-3.22265625 6.0546875 -3.22265625 6.0546875 -2.0625 3.875 C-1.49208984 2.78832031 -1.49208984 2.78832031 -0.91015625 1.6796875 C-0.60980469 1.12539063 -0.30945313 0.57109375 0 0 Z " fill="#491E8D" transform="translate(674,507)"/>
<path d="M0 0 C3.72940389 1.24313463 4.84656811 2.76985216 7 6 C6.67 6.99 6.34 7.98 6 9 C4.99406757 7.8803014 3.9954151 6.7540588 3 5.625 C2.443125 4.99851562 1.88625 4.37203125 1.3125 3.7265625 C0 2 0 2 0 0 Z " fill="#532491" transform="translate(209,403)"/>
<path d="M0 0 C0.66 0.33 1.32 0.66 2 1 C-0.64 3.64 -3.28 6.28 -6 9 C-6.66 8.01 -7.32 7.02 -8 6 C-7.236875 5.566875 -6.47375 5.13375 -5.6875 4.6875 C-3.41906232 3.26313215 -1.7800277 1.96739903 0 0 Z " fill="#7A3ADF" transform="translate(779,395)"/>
<path d="M0 0 C-2.3125 1.5625 -2.3125 1.5625 -5 3 C-5.99 2.67 -6.98 2.34 -8 2 C-8.99 2.495 -8.99 2.495 -10 3 C-9.67 2.01 -9.34 1.02 -9 0 C-5.62182575 -0.84454356 -3.32534757 -1.10844919 0 0 Z " fill="#542798" transform="translate(704,763)"/>
<path d="M0 0 C6.75 0.75 6.75 0.75 9 3 C5.98968256 3.93423645 5.13349732 4.04449911 2 3 C2 2.34 2 1.68 2 1 C1.34 0.67 0.68 0.34 0 0 Z " fill="#421D79" transform="translate(452,609)"/>
<path d="M0 0 C4.16138263 -0.08159574 7.9472484 0.01751476 12 1 C8.91190305 2.76462683 7.76687864 3 4 3 C4 2.34 4 1.68 4 1 C2.68 0.67 1.36 0.34 0 0 Z " fill="#854ED4" transform="translate(832,374)"/>
<path d="M0 0 C0.33 0.66 0.66 1.32 1 2 C-2.63 1.67 -6.26 1.34 -10 1 C-10 0.67 -10 0.34 -10 0 C-3.34250344 -1.36176066 -3.34250344 -1.36176066 0 0 Z " fill="#6B35A3" transform="translate(491,618)"/>
<path d="M0 0 C3.3 1.98 6.6 3.96 10 6 C9.01 6.495 9.01 6.495 8 7 C5.8359375 6.00390625 5.8359375 6.00390625 3.375 4.5625 C2.55773437 4.08941406 1.74046875 3.61632812 0.8984375 3.12890625 C0.27195312 2.75636719 -0.35453125 2.38382813 -1 2 C-0.67 1.34 -0.34 0.68 0 0 Z " fill="#4A149F" transform="translate(404,584)"/>
<path d="M0 0 C2.64 0.33 5.28 0.66 8 1 C8.33 1.99 8.66 2.98 9 4 C6.03 3.01 3.06 2.02 0 1 C0 0.67 0 0.34 0 0 Z " fill="#5823A8" transform="translate(311,278)"/>
<path d="M0 0 C-2.61941217 1.74627478 -4.03824877 2.38722388 -7 3 C-7.66 2.01 -8.32 1.02 -9 0 C-5.67465243 -1.10844919 -3.37817425 -0.84454356 0 0 Z " fill="#552898" transform="translate(661,784)"/>
<path d="M0 0 C0.66 0.33 1.32 0.66 2 1 C0.68 2.65 -0.64 4.3 -2 6 C-3.32 5.67 -4.64 5.34 -6 5 C-4.02 3.35 -2.04 1.7 0 0 Z " fill="#572D98" transform="translate(541,695)"/>
<path d="M0 0 C0.6875 1.8125 0.6875 1.8125 1 4 C-0.4375 5.75 -0.4375 5.75 -2 7 C-2.99 6.67 -3.98 6.34 -5 6 C-3.35 4.02 -1.7 2.04 0 0 Z " fill="#5F24A1" transform="translate(642,599)"/>
<path d="M0 0 C0.6875 1.8125 0.6875 1.8125 1 4 C-0.4375 5.75 -0.4375 5.75 -2 7 C-2.99 6.67 -3.98 6.34 -5 6 C-3.35 4.02 -1.7 2.04 0 0 Z " fill="#5A2B9B" transform="translate(654,585)"/>
<path d="M0 0 C2.31 0.33 4.62 0.66 7 1 C7 1.66 7 2.32 7 3 C7.66 3.33 8.32 3.66 9 4 C3.46153846 3.38461538 3.46153846 3.38461538 1.125 1.4375 C0.75375 0.963125 0.3825 0.48875 0 0 Z " fill="#4B1C90" transform="translate(575,459)"/>
<path d="M0 0 C2.875 0.25 2.875 0.25 6 1 C7.375 3.0625 7.375 3.0625 8 5 C4.62496331 3.8141763 2.35277269 2.72426311 0 0 Z " fill="#561BA0" transform="translate(520,431)"/>
<path d="M0 0 C3.36720387 1.39332574 4.9859524 2.9789286 7 6 C3.75728494 5.4409112 2.06942576 4.5867822 0 2 C0 1.34 0 0.68 0 0 Z " fill="#532299" transform="translate(136,327)"/>
<path d="M0 0 C0 0.66 0 1.32 0 2 C-2.31 2.66 -4.62 3.32 -7 4 C-7 3.34 -7 2.68 -7 2 C-7.66 1.67 -8.32 1.34 -9 1 C-5.94152152 0.45627049 -3.11227195 0 0 0 Z " fill="#CB97F9" transform="translate(634,167)"/>
<path d="M0 0 C0.66 0 1.32 0 2 0 C2 0.66 2 1.32 2 2 C1.34 2 0.68 2 0 2 C0 1.34 0 0.68 0 0 Z " fill="#5515AA" transform="translate(499,622)"/>
<path d="M0 0 C4 1 4 1 4 1 Z " fill="#D9BAFF" transform="translate(684,162)"/>
<path d="M0 0 C3 1 3 1 3 1 Z " fill="#2A00D4" transform="translate(433,806)"/>
<path d="M0 0 C0.66 0 1.32 0 2 0 C1.67 0.66 1.34 1.32 1 2 C0.67 1.34 0.34 0.68 0 0 Z " fill="#2A00D4" transform="translate(436,761)"/>
<path d="M0 0 C0.99 0.495 0.99 0.495 2 1 C1.01 1.495 1.01 1.495 0 2 C0 1.34 0 0.68 0 0 Z " fill="#771199" transform="translate(561,675)"/>
<path d="M0 0 C3 1 3 1 3 1 Z " fill="#1C1CE2" transform="translate(519,623)"/>
<path d="" fill="#5500AA" transform="translate(0,0)"/>
<path d="M0 0 C0.33 0.66 0.66 1.32 1 2 C0.34 1.67 -0.32 1.34 -1 1 C-0.67 0.67 -0.34 0.34 0 0 Z " fill="#2A00D4" transform="translate(285,493)"/>
<path d="M0 0 C3 1 3 1 3 1 Z " fill="#B847FF" transform="translate(852,376)"/>
<path d="M0 0 C0.66 0 1.32 0 2 0 C1.67 0.66 1.34 1.32 1 2 C0.67 1.34 0.34 0.68 0 0 Z " fill="#FFAAFF" transform="translate(752,230)"/>
<path d="M0 0 C3 1 3 1 3 1 Z " fill="#FFD4FF" transform="translate(647,163)"/>
<path d="M0 0 C0.66 0.66 1.32 1.32 2 2 C1.34 2 0.68 2 0 2 C0 1.34 0 0.68 0 0 Z " fill="#FFD4FF" transform="translate(652,161)"/>
<path d="M0 0 C2 1 2 1 2 1 Z " fill="#0000FF" transform="translate(508,815)"/>
<path d="" fill="#0000FF" transform="translate(0,0)"/>
<path d="M0 0 C2 1 2 1 2 1 Z " fill="#0000FF" transform="translate(501,722)"/>
<path d="" fill="#0000FF" transform="translate(0,0)"/>
<path d="M0 0 C2 1 2 1 2 1 Z " fill="#0000FF" transform="translate(516,623)"/>
<path d="M0 0 C2 1 2 1 2 1 Z " fill="#4000BF" transform="translate(508,623)"/>
<path d="" fill="#0000FF" transform="translate(0,0)"/>
<path d="M0 0 C2 1 2 1 2 1 Z " fill="#4000BF" transform="translate(536,621)"/>
<path d="M0 0 C2 1 2 1 2 1 Z " fill="#0000FF" transform="translate(482,620)"/>
<path d="M0 0 C2 1 2 1 2 1 Z " fill="#0000FF" transform="translate(564,614)"/>
<path d="M0 0 C2 1 2 1 2 1 Z " fill="#4000BF" transform="translate(438,607)"/>
<path d="" fill="#0000FF" transform="translate(0,0)"/>
<path d="" fill="#4000BF" transform="translate(0,0)"/>
<path d="M0 0 C2 1 2 1 2 1 Z " fill="#5555AA" transform="translate(402,589)"/>
<path d="M0 0 C2 1 2 1 2 1 Z " fill="#800080" transform="translate(656,579)"/>
<path d="" fill="#3319CC" transform="translate(0,0)"/>
<path d="" fill="#0000FF" transform="translate(0,0)"/>
<path d="" fill="#7F00FF" transform="translate(0,0)"/>
<path d="M0 0 C2 1 2 1 2 1 Z " fill="#D42AFF" transform="translate(660,476)"/>
<path d="M0 0 C2 1 2 1 2 1 Z " fill="#D42AFF" transform="translate(685,463)"/>
<path d="M0 0 C2 1 2 1 2 1 Z " fill="#BF40FF" transform="translate(692,462)"/>
<path d="M0 0 C2 1 2 1 2 1 Z " fill="#FF00FF" transform="translate(560,448)"/>
<path d="" fill="#4000BF" transform="translate(0,0)"/>
<path d="" fill="#FF00FF" transform="translate(0,0)"/>
<path d="M0 0 C2 1 2 1 2 1 Z " fill="#BF40FF" transform="translate(484,382)"/>
<path d="" fill="#FF00FF" transform="translate(0,0)"/>
<path d="" fill="#4020DF" transform="translate(0,0)"/>
<path d="" fill="#BFBFFF" transform="translate(0,0)"/>
<path d="" fill="#FFBFFF" transform="translate(0,0)"/>
<path d="" fill="#FFFFFF" transform="translate(0,0)"/>
<path d="M0 0 C2 1 2 1 2 1 Z " fill="#FFBFFF" transform="translate(772,220)"/>
<path d="M0 0 C2 1 2 1 2 1 Z " fill="#FFFFFF" transform="translate(801,213)"/>
<path d="M0 0 C2 1 2 1 2 1 Z " fill="#FF80FF" transform="translate(548,201)"/>
<path d="M0 0 C2 1 2 1 2 1 Z " fill="#FFBFFF" transform="translate(726,168)"/>
<path d="M0 0 C2 1 2 1 2 1 Z " fill="#FFFFFF" transform="translate(619,168)"/>
<path d="M0 0 C2 1 2 1 2 1 Z " fill="#D4D4FF" transform="translate(659,162)"/>
<path d="" fill="#000000" transform="translate(0,0)"/>
<path d="" fill="#0000FF" transform="translate(0,0)"/>
<path d="" fill="#0000FF" transform="translate(0,0)"/>
<path d="" fill="#0000FF" transform="translate(0,0)"/>
<path d="" fill="#0000FF" transform="translate(0,0)"/>
<path d="" fill="#0000FF" transform="translate(0,0)"/>
<path d="" fill="#0000FF" transform="translate(0,0)"/>
<path d="" fill="#0000FF" transform="translate(0,0)"/>
<path d="" fill="#0000FF" transform="translate(0,0)"/>
<path d="" fill="#0000FF" transform="translate(0,0)"/>
<path d="" fill="#0000FF" transform="translate(0,0)"/>
<path d="" fill="#800080" transform="translate(0,0)"/>
<path d="" fill="#0000FF" transform="translate(0,0)"/>
<path d="" fill="#800080" transform="translate(0,0)"/>
<path d="" fill="#800080" transform="translate(0,0)"/>
<path d="" fill="#0000FF" transform="translate(0,0)"/>
<path d="" fill="#800080" transform="translate(0,0)"/>
<path d="" fill="#0000FF" transform="translate(0,0)"/>
<path d="" fill="#0000FF" transform="translate(0,0)"/>
<path d="" fill="#800080" transform="translate(0,0)"/>
<path d="" fill="#0000FF" transform="translate(0,0)"/>
<path d="" fill="#0000FF" transform="translate(0,0)"/>
<path d="" fill="#0000FF" transform="translate(0,0)"/>
<path d="" fill="#800080" transform="translate(0,0)"/>
<path d="" fill="#0000FF" transform="translate(0,0)"/>
<path d="" fill="#0000FF" transform="translate(0,0)"/>
<path d="" fill="#0000FF" transform="translate(0,0)"/>
<path d="" fill="#8040BF" transform="translate(0,0)"/>
<path d="" fill="#800080" transform="translate(0,0)"/>
<path d="" fill="#800080" transform="translate(0,0)"/>
<path d="" fill="#0000FF" transform="translate(0,0)"/>
<path d="" fill="#0000FF" transform="translate(0,0)"/>
<path d="" fill="#0000FF" transform="translate(0,0)"/>
<path d="" fill="#0000FF" transform="translate(0,0)"/>
<path d="" fill="#5555AA" transform="translate(0,0)"/>
<path d="" fill="#5555AA" transform="translate(0,0)"/>
<path d="" fill="#6633CC" transform="translate(0,0)"/>
<path d="" fill="#0000FF" transform="translate(0,0)"/>
<path d="" fill="#800080" transform="translate(0,0)"/>
<path d="" fill="#8040BF" transform="translate(0,0)"/>
<path d="" fill="#8040BF" transform="translate(0,0)"/>
<path d="" fill="#0000FF" transform="translate(0,0)"/>
<path d="" fill="#800080" transform="translate(0,0)"/>
<path d="" fill="#0000FF" transform="translate(0,0)"/>
<path d="" fill="#8040BF" transform="translate(0,0)"/>
<path d="" fill="#8040BF" transform="translate(0,0)"/>
<path d="" fill="#0000FF" transform="translate(0,0)"/>
<path d="" fill="#800080" transform="translate(0,0)"/>
<path d="" fill="#0000FF" transform="translate(0,0)"/>
<path d="" fill="#0000FF" transform="translate(0,0)"/>
<path d="" fill="#0000FF" transform="translate(0,0)"/>
<path d="" fill="#0000FF" transform="translate(0,0)"/>
<path d="" fill="#800080" transform="translate(0,0)"/>
<path d="" fill="#800080" transform="translate(0,0)"/>
<path d="" fill="#0000FF" transform="translate(0,0)"/>
<path d="" fill="#800080" transform="translate(0,0)"/>
<path d="" fill="#0000FF" transform="translate(0,0)"/>
<path d="" fill="#0000FF" transform="translate(0,0)"/>
<path d="" fill="#0000FF" transform="translate(0,0)"/>
<path d="" fill="#5555AA" transform="translate(0,0)"/>
<path d="" fill="#0000FF" transform="translate(0,0)"/>
<path d="" fill="#800080" transform="translate(0,0)"/>
<path d="" fill="#0000FF" transform="translate(0,0)"/>
<path d="" fill="#0000FF" transform="translate(0,0)"/>
<path d="" fill="#0000FF" transform="translate(0,0)"/>
<path d="" fill="#0000FF" transform="translate(0,0)"/>
<path d="" fill="#800080" transform="translate(0,0)"/>
<path d="" fill="#0000FF" transform="translate(0,0)"/>
<path d="" fill="#0000FF" transform="translate(0,0)"/>
<path d="" fill="#0000FF" transform="translate(0,0)"/>
<path d="" fill="#8040BF" transform="translate(0,0)"/>
<path d="" fill="#0000FF" transform="translate(0,0)"/>
<path d="" fill="#0000FF" transform="translate(0,0)"/>
<path d="" fill="#0000FF" transform="translate(0,0)"/>
<path d="" fill="#0000FF" transform="translate(0,0)"/>
<path d="" fill="#800080" transform="translate(0,0)"/>
<path d="" fill="#0000FF" transform="translate(0,0)"/>
<path d="" fill="#0000FF" transform="translate(0,0)"/>
<path d="" fill="#0000FF" transform="translate(0,0)"/>
<path d="" fill="#800080" transform="translate(0,0)"/>
<path d="" fill="#800080" transform="translate(0,0)"/>
<path d="" fill="#800080" transform="translate(0,0)"/>
<path d="" fill="#800080" transform="translate(0,0)"/>
<path d="" fill="#0000FF" transform="translate(0,0)"/>
<path d="" fill="#0000FF" transform="translate(0,0)"/>
<path d="" fill="#0000FF" transform="translate(0,0)"/>
<path d="" fill="#800080" transform="translate(0,0)"/>
<path d="" fill="#0000FF" transform="translate(0,0)"/>
<path d="" fill="#800080" transform="translate(0,0)"/>
<path d="" fill="#4040BF" transform="translate(0,0)"/>
<path d="" fill="#552BAA" transform="translate(0,0)"/>
<path d="" fill="#0000FF" transform="translate(0,0)"/>
<path d="" fill="#5555AA" transform="translate(0,0)"/>
<path d="" fill="#0000FF" transform="translate(0,0)"/>
<path d="" fill="#0000FF" transform="translate(0,0)"/>
<path d="" fill="#0000FF" transform="translate(0,0)"/>
<path d="" fill="#0000FF" transform="translate(0,0)"/>
<path d="" fill="#0000FF" transform="translate(0,0)"/>
<path d="" fill="#800080" transform="translate(0,0)"/>
<path d="" fill="#0000FF" transform="translate(0,0)"/>
<path d="" fill="#0000FF" transform="translate(0,0)"/>
<path d="" fill="#0000FF" transform="translate(0,0)"/>
<path d="" fill="#800080" transform="translate(0,0)"/>
<path d="" fill="#800080" transform="translate(0,0)"/>
<path d="" fill="#0000FF" transform="translate(0,0)"/>
<path d="" fill="#0000FF" transform="translate(0,0)"/>
<path d="" fill="#800080" transform="translate(0,0)"/>
<path d="" fill="#0000FF" transform="translate(0,0)"/>
<path d="" fill="#0000FF" transform="translate(0,0)"/>
<path d="" fill="#800080" transform="translate(0,0)"/>
<path d="" fill="#0000FF" transform="translate(0,0)"/>
<path d="" fill="#0000FF" transform="translate(0,0)"/>
<path d="" fill="#FF00FF" transform="translate(0,0)"/>
<path d="" fill="#FF00FF" transform="translate(0,0)"/>
<path d="" fill="#FF00FF" transform="translate(0,0)"/>
<path d="" fill="#AA55AA" transform="translate(0,0)"/>
<path d="" fill="#FF00FF" transform="translate(0,0)"/>
<path d="" fill="#8080FF" transform="translate(0,0)"/>
<path d="" fill="#FF00FF" transform="translate(0,0)"/>
<path d="" fill="#FF00FF" transform="translate(0,0)"/>
<path d="" fill="#FF00FF" transform="translate(0,0)"/>
<path d="" fill="#FF00FF" transform="translate(0,0)"/>
<path d="" fill="#FF00FF" transform="translate(0,0)"/>
<path d="" fill="#FF00FF" transform="translate(0,0)"/>
<path d="" fill="#FF00FF" transform="translate(0,0)"/>
<path d="" fill="#FF00FF" transform="translate(0,0)"/>
<path d="" fill="#FF00FF" transform="translate(0,0)"/>
<path d="" fill="#0000FF" transform="translate(0,0)"/>
<path d="" fill="#FF00FF" transform="translate(0,0)"/>
<path d="" fill="#FF00FF" transform="translate(0,0)"/>
<path d="" fill="#FF00FF" transform="translate(0,0)"/>
<path d="" fill="#AA55AA" transform="translate(0,0)"/>
<path d="" fill="#FF00FF" transform="translate(0,0)"/>
<path d="" fill="#FF00FF" transform="translate(0,0)"/>
<path d="" fill="#FF00FF" transform="translate(0,0)"/>
<path d="" fill="#0000FF" transform="translate(0,0)"/>
<path d="" fill="#FF00FF" transform="translate(0,0)"/>
<path d="" fill="#8080FF" transform="translate(0,0)"/>
<path d="" fill="#8080FF" transform="translate(0,0)"/>
<path d="" fill="#FF00FF" transform="translate(0,0)"/>
<path d="" fill="#FF00FF" transform="translate(0,0)"/>
<path d="" fill="#0000FF" transform="translate(0,0)"/>
<path d="" fill="#0000FF" transform="translate(0,0)"/>
<path d="" fill="#FF00FF" transform="translate(0,0)"/>
<path d="" fill="#0000FF" transform="translate(0,0)"/>
<path d="" fill="#8080FF" transform="translate(0,0)"/>
<path d="" fill="#0000FF" transform="translate(0,0)"/>
<path d="" fill="#FF00FF" transform="translate(0,0)"/>
<path d="" fill="#5555AA" transform="translate(0,0)"/>
<path d="" fill="#FF00FF" transform="translate(0,0)"/>
<path d="" fill="#5555AA" transform="translate(0,0)"/>
<path d="" fill="#0000FF" transform="translate(0,0)"/>
<path d="" fill="#FF00FF" transform="translate(0,0)"/>
<path d="" fill="#FF00FF" transform="translate(0,0)"/>
<path d="" fill="#8080FF" transform="translate(0,0)"/>
<path d="" fill="#FF00FF" transform="translate(0,0)"/>
<path d="" fill="#0000FF" transform="translate(0,0)"/>
<path d="" fill="#FF00FF" transform="translate(0,0)"/>
<path d="" fill="#0000FF" transform="translate(0,0)"/>
<path d="" fill="#0000FF" transform="translate(0,0)"/>
<path d="" fill="#8080FF" transform="translate(0,0)"/>
<path d="" fill="#0000FF" transform="translate(0,0)"/>
<path d="" fill="#BF80FF" transform="translate(0,0)"/>
<path d="" fill="#0000FF" transform="translate(0,0)"/>
<path d="" fill="#FF00FF" transform="translate(0,0)"/>
<path d="" fill="#FF00FF" transform="translate(0,0)"/>
<path d="" fill="#FF00FF" transform="translate(0,0)"/>
<path d="" fill="#FF00FF" transform="translate(0,0)"/>
<path d="" fill="#FF00FF" transform="translate(0,0)"/>
<path d="" fill="#FF00FF" transform="translate(0,0)"/>
<path d="" fill="#FF00FF" transform="translate(0,0)"/>
<path d="" fill="#8080FF" transform="translate(0,0)"/>
<path d="" fill="#FF00FF" transform="translate(0,0)"/>
<path d="" fill="#FF00FF" transform="translate(0,0)"/>
<path d="" fill="#800080" transform="translate(0,0)"/>
<path d="" fill="#8080FF" transform="translate(0,0)"/>
<path d="" fill="#FF00FF" transform="translate(0,0)"/>
<path d="" fill="#FF00FF" transform="translate(0,0)"/>
<path d="" fill="#0000FF" transform="translate(0,0)"/>
<path d="" fill="#8080FF" transform="translate(0,0)"/>
<path d="" fill="#5555AA" transform="translate(0,0)"/>
<path d="" fill="#8080FF" transform="translate(0,0)"/>
<path d="" fill="#800080" transform="translate(0,0)"/>
<path d="" fill="#AA55FF" transform="translate(0,0)"/>
<path d="" fill="#5555AA" transform="translate(0,0)"/>
<path d="" fill="#FF00FF" transform="translate(0,0)"/>
<path d="" fill="#FF00FF" transform="translate(0,0)"/>
<path d="" fill="#FF00FF" transform="translate(0,0)"/>
<path d="" fill="#0000FF" transform="translate(0,0)"/>
<path d="" fill="#0000FF" transform="translate(0,0)"/>
<path d="" fill="#FF00FF" transform="translate(0,0)"/>
<path d="" fill="#5555AA" transform="translate(0,0)"/>
<path d="" fill="#FF00FF" transform="translate(0,0)"/>
<path d="" fill="#0000FF" transform="translate(0,0)"/>
<path d="" fill="#0000FF" transform="translate(0,0)"/>
<path d="" fill="#808080" transform="translate(0,0)"/>
<path d="" fill="#0000FF" transform="translate(0,0)"/>
<path d="" fill="#808080" transform="translate(0,0)"/>
<path d="" fill="#0000FF" transform="translate(0,0)"/>
<path d="" fill="#808080" transform="translate(0,0)"/>
<path d="" fill="#0000FF" transform="translate(0,0)"/>
<path d="" fill="#8040BF" transform="translate(0,0)"/>
<path d="" fill="#FF00FF" transform="translate(0,0)"/>
<path d="" fill="#8040BF" transform="translate(0,0)"/>
<path d="" fill="#FFFFFF" transform="translate(0,0)"/>
<path d="" fill="#5555AA" transform="translate(0,0)"/>
<path d="" fill="#CC99FF" transform="translate(0,0)"/>
<path d="" fill="#FFFFFF" transform="translate(0,0)"/>
<path d="" fill="#FF00FF" transform="translate(0,0)"/>
<path d="" fill="#FF00FF" transform="translate(0,0)"/>
<path d="" fill="#0000FF" transform="translate(0,0)"/>
<path d="" fill="#FFFFFF" transform="translate(0,0)"/>
<path d="" fill="#FF00FF" transform="translate(0,0)"/>
<path d="" fill="#FF00FF" transform="translate(0,0)"/>
<path d="" fill="#FF80FF" transform="translate(0,0)"/>
<path d="" fill="#FFFFFF" transform="translate(0,0)"/>
<path d="" fill="#FF00FF" transform="translate(0,0)"/>
<path d="" fill="#FFFFFF" transform="translate(0,0)"/>
<path d="" fill="#8080FF" transform="translate(0,0)"/>
<path d="" fill="#FFFFFF" transform="translate(0,0)"/>
<path d="" fill="#FFFFFF" transform="translate(0,0)"/>
<path d="" fill="#8040BF" transform="translate(0,0)"/>
<path d="" fill="#0000FF" transform="translate(0,0)"/>
<path d="" fill="#FFFFFF" transform="translate(0,0)"/>
<path d="" fill="#FF00FF" transform="translate(0,0)"/>
<path d="" fill="#0000FF" transform="translate(0,0)"/>
<path d="" fill="#FFFFFF" transform="translate(0,0)"/>
<path d="" fill="#FF00FF" transform="translate(0,0)"/>
<path d="" fill="#FFFFFF" transform="translate(0,0)"/>
<path d="" fill="#FFFFFF" transform="translate(0,0)"/>
<path d="" fill="#FF80FF" transform="translate(0,0)"/>
<path d="" fill="#FFFFFF" transform="translate(0,0)"/>
<path d="" fill="#FFFFFF" transform="translate(0,0)"/>
<path d="" fill="#FFFFFF" transform="translate(0,0)"/>
<path d="" fill="#FF80FF" transform="translate(0,0)"/>
<path d="" fill="#BF80FF" transform="translate(0,0)"/>
<path d="" fill="#FF80FF" transform="translate(0,0)"/>
<path d="" fill="#FF80FF" transform="translate(0,0)"/>
<path d="" fill="#FF80FF" transform="translate(0,0)"/>
<path d="" fill="#FFFFFF" transform="translate(0,0)"/>
<path d="" fill="#FF80FF" transform="translate(0,0)"/>
<path d="" fill="#FFFFFF" transform="translate(0,0)"/>
<path d="" fill="#FF80FF" transform="translate(0,0)"/>
<path d="" fill="#FFFFFF" transform="translate(0,0)"/>
<path d="" fill="#FF80FF" transform="translate(0,0)"/>
<path d="" fill="#FFFFFF" transform="translate(0,0)"/>
<path d="" fill="#FFFFFF" transform="translate(0,0)"/>
<path d="" fill="#BF80FF" transform="translate(0,0)"/>
<path d="" fill="#FFFFFF" transform="translate(0,0)"/>
<path d="" fill="#FF80FF" transform="translate(0,0)"/>
<path d="" fill="#FFFFFF" transform="translate(0,0)"/>
<path d="" fill="#FF80FF" transform="translate(0,0)"/>
<path d="" fill="#FFFFFF" transform="translate(0,0)"/>
<path d="" fill="#FFFFFF" transform="translate(0,0)"/>
<path d="" fill="#FFFFFF" transform="translate(0,0)"/>
<path d="" fill="#FF80FF" transform="translate(0,0)"/>
<path d="" fill="#FFFFFF" transform="translate(0,0)"/>
<path d="" fill="#FFFFFF" transform="translate(0,0)"/>
<path d="" fill="#FFFFFF" transform="translate(0,0)"/>
<path d="" fill="#FF80FF" transform="translate(0,0)"/>
<path d="" fill="#AAAAFF" transform="translate(0,0)"/>
<path d="" fill="#FFFFFF" transform="translate(0,0)"/>
<path d="" fill="#FFFFFF" transform="translate(0,0)"/>
<path d="" fill="#FF80FF" transform="translate(0,0)"/>
<path d="" fill="#FFFFFF" transform="translate(0,0)"/>
<path d="" fill="#FF80FF" transform="translate(0,0)"/>
<path d="" fill="#FFFFFF" transform="translate(0,0)"/>
<path d="" fill="#FF80FF" transform="translate(0,0)"/>
<path d="" fill="#FFFFFF" transform="translate(0,0)"/>
<path d="" fill="#FFFFFF" transform="translate(0,0)"/>
<path d="" fill="#FFFFFF" transform="translate(0,0)"/>
<path d="" fill="#FFFFFF" transform="translate(0,0)"/>
<path d="" fill="#FFFFFF" transform="translate(0,0)"/>
<path d="" fill="#FF80FF" transform="translate(0,0)"/>
<path d="" fill="#FFFFFF" transform="translate(0,0)"/>
<path d="" fill="#FFFFFF" transform="translate(0,0)"/>
<path d="" fill="#FF80FF" transform="translate(0,0)"/>
<path d="" fill="#FFFFFF" transform="translate(0,0)"/>
<path d="" fill="#FFFFFF" transform="translate(0,0)"/>
</svg>
